<svg width="143" height="92" viewBox="0 0 143 92" fill="none" xmlns="http://www.w3.org/2000/svg">
<path d="M89.3783 24.0732V27.889" stroke="#B49B72" stroke-linecap="square" stroke-linejoin="bevel"/>
<path d="M91.3275 25.9811H87.4301" stroke="#B49B72" stroke-linecap="square" stroke-linejoin="bevel"/>
<path d="M78.8314 8.58997V12.4057" stroke="#B49B72" stroke-linecap="square" stroke-linejoin="bevel"/>
<path d="M80.7807 10.4978H76.8832" stroke="#B49B72" stroke-linecap="square" stroke-linejoin="bevel"/>
<path d="M61.6484 52.0369C61.6484 52.0369 64.5047 52.2091 64.5047 55.9353H64.6032C64.6032 52.2091 67.4595 52.0369 67.4595 52.0369V51.9405C67.4595 51.9405 64.6032 51.7683 64.6032 48.0421H64.5047C64.5047 51.7683 61.6484 51.9405 61.6484 51.9405V52.0369Z" fill="#F8F8F8" stroke="#B49B72" stroke-linecap="square" stroke-linejoin="bevel"/>
<path d="M55.2355 43.8338C55.2355 44.1782 54.947 44.4606 54.5953 44.4606C54.2435 44.4606 53.9551 44.1782 53.9551 43.8338C53.9551 43.4894 54.2435 43.207 54.5953 43.207C54.947 43.207 55.2355 43.4894 55.2355 43.8338Z" fill="#B49B72"/>
<path d="M79.6368 32.7861C79.6368 32.7861 79.883 32.9583 80.3614 32.9859C86.4047 33.3509 92.6238 37.0289 94.6429 43.8338C99.8489 61.3558 83.1544 60.4191 82.2047 72.004C81.3253 82.7005 90.7032 83.4305 90.7032 90.8829L60.5504 91C60.5504 91 56.871 88.2863 57.0187 80.5102C57.4338 58.8143 91.3222 56.5758 73.3263 38.9574L79.6298 32.7861H79.6368Z" fill="#F8F8F8" stroke="#B49B72" stroke-linecap="square" stroke-linejoin="bevel"/>
<path d="M89.0207 43.834C94.8458 61.108 76.5403 60.4193 75.5905 72.0042C74.7111 82.7006 84.089 83.4307 84.089 90.8831" stroke="#B49B72" stroke-linecap="square" stroke-linejoin="bevel"/>
<path d="M66.0383 90.814C65.3348 90.1873 62.5981 87.3151 62.7247 80.5102C63.1398 58.8143 97.0282 56.5758 79.0323 38.9574" stroke="#B49B72" stroke-linecap="square" stroke-linejoin="bevel"/>
<path d="M74.0936 28.1094C75.6483 29.6316 78.1669 29.6316 79.7217 28.1094C81.2765 26.5873 81.2765 24.1215 79.7217 22.5994C78.1669 21.0772 75.6483 21.0772 74.0936 22.5994C72.5388 24.1215 72.5388 26.5873 74.0936 28.1094Z" fill="#F8F8F8" stroke="#B49B72" stroke-width="3" stroke-linecap="square" stroke-linejoin="bevel"/>
<path d="M65.7422 40.1697C67.9375 40.1697 69.7171 38.4274 69.7171 36.2782C69.7171 34.129 67.9375 32.3867 65.7422 32.3867C63.5469 32.3867 61.7673 34.129 61.7673 36.2782C61.7673 38.4274 63.5469 40.1697 65.7422 40.1697Z" fill="#F8F8F8" stroke="#B49B72" stroke-width="3" stroke-linecap="square" stroke-linejoin="bevel"/>
<path d="M65.0803 34.1981C69.9979 35.8029 71.6371 40.6173 71.6371 40.6173L81.3316 31.1263C81.3316 31.1263 76.414 29.5214 74.7748 24.707C73.1356 19.8926 74.423 14.7407 69.625 9.92627C66.7969 7.08859 63.42 6.81996 61.1195 7.0748L54.3376 13.7144L53.8451 14.1966L47.0632 20.8362C46.8029 23.0816 47.0773 26.3945 49.9758 29.1633C54.8934 33.8606 60.1557 32.6002 65.0733 34.205L65.0803 34.1981Z" fill="#F8F8F8" stroke="#B49B72" stroke-linecap="square" stroke-linejoin="bevel"/>
<path d="M69.3411 10.2018C69.3411 10.2018 61.715 21.6696 50.2617 28.8809" stroke="#B49B72" stroke-linecap="square" stroke-linejoin="bevel"/>
<path d="M72.3213 13.9417C72.3213 13.9417 65.1384 24.7414 54.3464 31.5394" stroke="#B49B72" stroke-linecap="square" stroke-linejoin="bevel"/>
<path d="M47.0761 20.8363C46.5626 20.3335 49.2852 16.8415 53.1615 13.0465C57.0379 9.25139 60.6048 6.57902 61.1183 7.0887C61.6319 7.59149 58.9093 11.0835 55.0329 14.8786C51.1565 18.6736 47.5897 21.346 47.0761 20.8363Z" fill="#B49B72" stroke="#B49B72" stroke-linecap="square" stroke-linejoin="bevel"/>
<path d="M71.639 40.6104C71.0973 40.0801 72.828 37.5248 75.5013 34.9075C78.1747 32.2902 80.7847 30.5959 81.3265 31.1262C81.8682 31.6565 80.1375 34.2118 77.4641 36.8291C74.7908 39.4464 72.1807 41.1407 71.639 40.6104Z" fill="#B49B72" stroke="#B49B72" stroke-linecap="square" stroke-linejoin="bevel"/>
<path d="M73.5083 66.1702C69.7655 71.0328 69.1042 74.883 69.9766 78.2441C71.2992 83.3478 75.9776 85.3659 75.9776 90.9999" stroke="#B49B72" stroke-linecap="square" stroke-linejoin="bevel"/>
<path d="M89.3783 24.0732V27.889" stroke="#B49B72" stroke-linecap="square" stroke-linejoin="bevel"/>
<path d="M91.3275 25.9811H87.4301" stroke="#B49B72" stroke-linecap="square" stroke-linejoin="bevel"/>
<path d="M78.8314 8.58997V12.4057" stroke="#B49B72" stroke-linecap="square" stroke-linejoin="bevel"/>
<path d="M80.7807 10.4978H76.8832" stroke="#B49B72" stroke-linecap="square" stroke-linejoin="bevel"/>
<path d="M61.6484 52.0369C61.6484 52.0369 64.5047 52.2091 64.5047 55.9353H64.6032C64.6032 52.2091 67.4595 52.0369 67.4595 52.0369V51.9405C67.4595 51.9405 64.6032 51.7683 64.6032 48.0421H64.5047C64.5047 51.7683 61.6484 51.9405 61.6484 51.9405V52.0369Z" fill="#F8F8F8" stroke="#B49B72" stroke-linecap="square" stroke-linejoin="bevel"/>
<path d="M55.2355 43.8338C55.2355 44.1782 54.947 44.4606 54.5953 44.4606C54.2435 44.4606 53.9551 44.1782 53.9551 43.8338C53.9551 43.4894 54.2435 43.207 54.5953 43.207C54.947 43.207 55.2355 43.4894 55.2355 43.8338Z" fill="#B49B72"/>
</svg>
