<svg width="143" height="91" viewBox="0 0 143 91" fill="none" xmlns="http://www.w3.org/2000/svg">
<path d="M55.2122 36.9104V40.7689" stroke="#B49B72" stroke-linecap="square" stroke-linejoin="bevel"/>
<path d="M57.1836 38.8396H53.2424" stroke="#B49B72" stroke-linecap="square" stroke-linejoin="bevel"/>
<path d="M62.2363 30.3009C62.2363 30.3009 65.1246 30.475 65.1246 34.243H65.2242C65.2242 30.475 68.1125 30.3009 68.1125 30.3009V30.2034C68.1125 30.2034 65.2242 30.0293 65.2242 26.2614H65.1246C65.1246 30.0293 62.2363 30.2034 62.2363 30.2034V30.3009Z" fill="#F8F8F8" stroke="#B49B72" stroke-linecap="square" stroke-linejoin="bevel"/>
<path d="M97.1096 28.3229V32.1814" stroke="#B49B72" stroke-linecap="square" stroke-linejoin="bevel"/>
<path d="M99.081 30.2521H95.1399" stroke="#B49B72" stroke-linecap="square" stroke-linejoin="bevel"/>
<path d="M55.8631 26.2612C55.8631 26.6095 55.5714 26.895 55.2157 26.895C54.86 26.895 54.5684 26.6095 54.5684 26.2612C54.5684 25.913 54.86 25.6274 55.2157 25.6274C55.5714 25.6274 55.8631 25.913 55.8631 26.2612Z" fill="#B49B72"/>
<path d="M68.4687 83.4907C68.2838 83.3723 64.2999 81.3595 64.2999 81.3595L67.0317 79.5974L79.4457 77.9328L83.4153 77.9189L84.4681 77.9328L88.4378 77.9189C88.4378 77.9189 90.0811 79.9596 89.8961 79.8133C89.7112 79.6601 85.6704 81.5475 85.6704 81.5475L91.511 81.3664C91.511 81.3664 93.8088 84.9533 93.8729 85.1344C93.9369 85.3155 93.8729 86.0468 93.8729 86.0468H45.4834L47.2263 83.6787H52.4978L68.4687 83.4977V83.4907Z" fill="#B49B72"/>
<path d="M83.1155 53.5283C83.1155 53.5283 82.7171 64.268 81.5718 67.3464L81.7994 73.6634L82.831 74.8405L82.9946 77.9328L86.9642 77.9189L84.7802 73.8933L84.3818 67.2976C84.3818 67.2976 87.4693 57.4007 88.323 56.1679L88.8067 49.642L83.1297 53.5353L83.1155 53.5283Z" fill="#B49B72"/>
<path d="M49.5934 51.3275C49.5934 51.3275 47.7296 51.1742 46.5913 53.6467C45.4531 56.1192 44.1441 57.3729 42.8992 57.7559C42.8992 57.7559 44.0872 58.5081 45.4246 57.4704C45.446 57.4564 45.4673 57.4356 45.4887 57.4216C46.8474 56.3142 45.1757 58.3131 45.1757 58.3131C45.1757 58.3131 46.883 58.2365 48.4837 55.8197C50.0843 53.403 49.6077 51.3205 49.6077 51.3205L49.5934 51.3275Z" fill="#B49B72"/>
<path d="M81.4065 15.3475C82.6657 17.1305 82.8578 19.4568 81.9614 21.4347C81.3283 22.8207 80.5244 24.2346 80.2612 25.9061C80.126 26.7489 79.9695 27.7796 79.8059 28.8244C79.2866 32.1605 77.6788 35.2459 75.2316 37.6208C73.4673 39.3342 71.326 40.6227 68.9713 41.3818L59.41 44.4811C56.2087 45.5189 53.2707 47.2252 50.8946 49.5724C49.8559 50.6032 49.0023 51.6757 48.7959 52.5881C48.5043 53.8696 48.7959 59.9638 52.1609 61.9209C52.1609 61.9209 51.3072 66.7893 48.5043 68.5165C48.5043 68.5165 49.4149 75.0007 46.2776 81.1018L48.7319 83.6718H51.0155L49.6994 80.4263C49.6994 80.4263 51.0724 73.6008 51.5277 72.3193C51.983 71.0308 61.466 60.1309 61.466 60.1309C61.466 60.1309 71.0628 60.2424 78.0843 56.3282C78.0843 56.3282 77.6859 64.268 76.5406 67.3464L76.7682 73.6635L77.7997 74.8405L77.9634 77.9329L81.933 77.9189L79.749 73.8933L79.3506 67.2977C79.3506 67.2977 82.4381 57.4008 83.2918 56.168C83.7399 55.5272 85.2837 53.8696 86.6496 52.4419C88.2147 50.8051 89.4027 48.862 90.1354 46.7447L91.5582 42.6285C92.668 39.4178 92.6965 35.9423 91.6223 32.7177C90.8611 30.4332 90.171 28.0095 90.3062 27.1458C90.5907 25.3559 90.7615 24.743 90.7615 24.743L93.3296 23.3431L95.3856 23.1759C95.3856 23.1759 97.1 21.9989 96.2392 19.4289C96.2392 19.4289 90.356 17.0818 87.6171 14.3934C84.8782 11.7119 81.0509 8.13205 75.3952 11.1478C69.7396 14.1705 72.137 21.6576 76.8251 21.6576C81.5133 21.6576 82.5946 15.1734 78.1981 15.1734C78.1981 15.1734 80.8801 17.1653 78.7957 18.9205C76.7398 20.6547 72.9267 16.5803 77.2235 14.2262C79.3221 13.077 80.5031 14.0869 81.3994 15.3545L81.4065 15.3475Z" fill="#F8F8F8" stroke="#B49B72" stroke-linecap="square" stroke-linejoin="bevel"/>
<path d="M93.0383 17.9384L90.9112 12.8263C90.6693 12.2343 90.029 11.9 89.3888 12.0253C88.5066 12.1994 88.0371 13.1536 88.4497 13.9337C88.9406 14.8669 89.4884 15.8768 89.5524 15.9186C90.6693 16.6778 91.9214 17.3743 93.0312 17.9384H93.0383Z" fill="#B49B72"/>
<path d="M85.5112 18.7464C85.5112 18.7464 86.9909 18.1404 88.2928 17.9385C88.2928 17.9385 86.5072 16.4201 85.5112 18.7464Z" fill="#B49B72"/>
<path d="M62.5405 52.6229C62.9674 57.4913 61.4663 60.1309 61.4663 60.1309C61.4663 60.1309 62.0568 60.1309 63.0527 60.0891C63.5863 56.4605 62.5405 52.6299 62.5405 52.6299V52.6229Z" fill="#B49B72" stroke="#B49B72" stroke-linecap="square" stroke-linejoin="bevel"/>
<path d="M78.0928 52.9293C78.0928 52.9293 77.7798 55.1163 77.3601 56.7112C77.6091 56.5858 77.851 56.4605 78.0928 56.3212C78.0928 56.3212 78.2138 54.4337 78.0928 52.9293Z" fill="#B49B72" stroke="#B49B72" stroke-linecap="square" stroke-linejoin="bevel"/>
<path d="M84.2178 21.9222C84.2178 21.9222 86.2311 24.5619 86.7006 25.1957C87.1701 25.8225 90.3074 27.1388 90.3074 27.1388C90.592 25.3489 90.7627 24.736 90.7627 24.736C90.7627 24.736 87.4831 24.4017 86.8998 24.2345C86.3164 24.0674 84.2107 21.9292 84.2107 21.9292L84.2178 21.9222Z" fill="#B49B72" stroke="#B49B72" stroke-linecap="square" stroke-linejoin="bevel"/>
<path d="M61.4663 60.1309C61.4663 60.1309 59.325 62.5964 57.0272 65.3196C56.4581 66.5454 55.6328 67.7991 54.4733 68.5165C54.4733 68.5165 55.3839 75.0006 52.2466 81.1018L54.7009 83.6718H56.9845L55.6684 80.4262C55.6684 80.4262 57.0414 73.6007 57.4967 72.3192C57.952 71.0307 67.435 60.1309 67.435 60.1309C67.435 60.1309 72.4717 60.1866 77.921 58.731C78.0348 57.3171 78.0846 56.3281 78.0846 56.3281C71.056 60.2423 61.4663 60.1309 61.4663 60.1309Z" fill="#B49B72"/>
<path d="M55.2122 36.9104V40.7689" stroke="#B49B72" stroke-linecap="square" stroke-linejoin="bevel"/>
<path d="M57.1836 38.8396H53.2424" stroke="#B49B72" stroke-linecap="square" stroke-linejoin="bevel"/>
<path d="M62.2363 30.3009C62.2363 30.3009 65.1246 30.475 65.1246 34.243H65.2242C65.2242 30.475 68.1125 30.3009 68.1125 30.3009V30.2034C68.1125 30.2034 65.2242 30.0293 65.2242 26.2614H65.1246C65.1246 30.0293 62.2363 30.2034 62.2363 30.2034V30.3009Z" fill="#F8F8F8" stroke="#B49B72" stroke-linecap="square" stroke-linejoin="bevel"/>
<path d="M97.1096 28.3229V32.1814" stroke="#B49B72" stroke-linecap="square" stroke-linejoin="bevel"/>
<path d="M99.081 30.2521H95.1399" stroke="#B49B72" stroke-linecap="square" stroke-linejoin="bevel"/>
<path d="M55.8631 26.2612C55.8631 26.6095 55.5714 26.895 55.2157 26.895C54.86 26.895 54.5684 26.6095 54.5684 26.2612C54.5684 25.913 54.86 25.6274 55.2157 25.6274C55.5714 25.6274 55.8631 25.913 55.8631 26.2612Z" fill="#B49B72"/>
</svg>
