<svg width="143" height="91" viewBox="0 0 143 91" fill="none" xmlns="http://www.w3.org/2000/svg">
<path d="M43.3478 66.452V70.3247" stroke="#B49B72" stroke-linecap="square" stroke-linejoin="bevel"/>
<path d="M45.3256 68.3884H41.3628" stroke="#B49B72" stroke-linecap="square" stroke-linejoin="bevel"/>
<path d="M43.3478 66.452V70.3247" stroke="#B49B72" stroke-linecap="square" stroke-linejoin="bevel"/>
<path d="M45.3256 68.3884H41.3628" stroke="#B49B72" stroke-linecap="square" stroke-linejoin="bevel"/>
<path d="M87.6095 16.205V20.0777" stroke="#B49B72" stroke-linecap="square" stroke-linejoin="bevel"/>
<path d="M89.5888 18.1414H85.6331" stroke="#B49B72" stroke-linecap="square" stroke-linejoin="bevel"/>
<path d="M68.475 18.7284C68.475 18.7284 71.3739 18.9032 71.3739 22.685H71.4739C71.4739 18.9032 74.3728 18.7284 74.3728 18.7284V18.6305C74.3728 18.6305 71.4739 18.4558 71.4739 14.674H71.3739C71.3739 18.4558 68.475 18.6305 68.475 18.6305V18.7284Z" fill="#F8F8F8" stroke="#B49B72" stroke-linecap="square" stroke-linejoin="bevel"/>
<path d="M60.9649 18.6795C60.9649 19.029 60.6722 19.3156 60.3152 19.3156C59.9582 19.3156 59.6654 19.029 59.6654 18.6795C59.6654 18.3299 59.9582 18.0433 60.3152 18.0433C60.6722 18.0433 60.9649 18.3299 60.9649 18.6795Z" fill="#B49B72"/>
<path d="M47.1112 51.6254C47.1112 51.6254 58.7783 44.614 64.4905 32.1431L52.2021 36.9245C52.2021 36.9245 53.0733 29.27 62.2556 26.4738C62.2556 26.4738 50.9597 22.7479 42.52 32.1431C34.0802 41.5452 37.429 48.9551 37.429 48.9551L47.1112 51.6254Z" fill="#F8F8F8" stroke="#B49B72" stroke-linecap="square" stroke-linejoin="bevel"/>
<path d="M46.3632 53.5827L42.0219 57.9448C37.0595 54.1769 38.4161 49.2207 38.4161 49.2207L45.8991 51.2899L46.3703 53.5827H46.3632Z" fill="#B49B72"/>
<path d="M47.7912 52.8977L46.3631 53.5828L42.0219 57.9448C42.0219 57.9448 41.929 62.9569 54.3816 62.9849C54.4459 60.2516 55.1742 57.6792 56.4237 55.4143L47.7912 52.8977Z" fill="#F8F8F8" stroke="#B49B72" stroke-linecap="square" stroke-linejoin="bevel"/>
<path d="M95.8931 51.6254C95.8931 51.6254 84.226 44.614 78.5138 32.1431L90.8021 36.9245C90.8021 36.9245 89.931 29.27 80.7487 26.4738C80.7487 26.4738 92.0445 22.7479 100.484 32.1431C108.924 41.5452 105.575 48.9551 105.575 48.9551L95.8931 51.6254Z" fill="#F8F8F8" stroke="#B49B72" stroke-linecap="square" stroke-linejoin="bevel"/>
<path d="M96.6433 53.5827L100.985 57.9448C105.947 54.1769 104.59 49.2207 104.59 49.2207L97.1074 51.2899L96.6361 53.5827H96.6433Z" fill="#B49B72"/>
<path d="M100.985 57.9448L96.644 53.5828L95.2159 52.8977L86.5834 55.4143C87.8329 57.6722 88.5612 60.2516 88.6255 62.9849C101.078 62.9569 100.985 57.9448 100.985 57.9448Z" fill="#F8F8F8" stroke="#B49B72" stroke-linecap="square" stroke-linejoin="bevel"/>
<path d="M47.1399 78.273L56.7721 69.5419C55.4797 67.8433 54.5943 66.0048 54.4158 64.0824C53.052 65.7671 48.7036 71.5412 47.1399 78.273Z" fill="#B49B72"/>
<path d="M57.4784 70.4227C56.086 72.3311 53.8012 75.9102 52.8586 79.9577L60.3059 73.2049C59.2848 72.3381 58.3209 71.4014 57.4784 70.4227Z" fill="#B49B72"/>
<path d="M58.4989 81.097L64.0897 76.029C63.2757 75.4907 62.4475 74.9035 61.6335 74.2814C60.5482 75.8962 59.1344 78.3638 58.4989 81.097Z" fill="#B49B72"/>
<path d="M54.373 63.3833C54.373 68.8708 60.378 73.7362 65.2833 76.798C69.0819 79.1677 73.9301 79.1677 77.7287 76.798C82.6269 73.7362 88.639 68.8708 88.639 63.3833C88.639 54.121 80.9704 46.6133 71.5096 46.6133C62.0488 46.6133 54.3802 54.121 54.3802 63.3833H54.373Z" fill="#F8F8F8" stroke="#B49B72" stroke-linecap="square" stroke-linejoin="bevel"/>
<path d="M95.8624 78.273L86.2302 69.542C87.5226 67.8433 88.408 66.0048 88.5865 64.0825C89.9503 65.7672 94.2987 71.5413 95.8624 78.273Z" fill="#B49B72"/>
<path d="M85.5239 70.4228C86.9163 72.3312 89.2012 75.9103 90.1437 79.9577L82.6964 73.205C83.7175 72.3382 84.6814 71.4015 85.5239 70.4228Z" fill="#B49B72"/>
<path d="M84.4972 81.0971L78.9064 76.029C79.7204 75.4908 80.5486 74.9036 81.3626 74.2814C82.4479 75.8962 83.8617 78.3638 84.4972 81.0971Z" fill="#B49B72"/>
<path d="M74.0305 46.795C77.008 47.2284 79.7284 48.4098 81.999 50.1365C79.9212 43.2229 74.5018 46.4944 74.0305 46.795Z" fill="#B49B72"/>
<path d="M68.9758 46.795C65.9983 47.2284 63.2779 48.4098 61.0073 50.1365C63.0851 43.2229 68.5046 46.4944 68.9758 46.795Z" fill="#B49B72"/>
<path d="M87.6095 16.205V20.0777" stroke="#B49B72" stroke-linecap="square" stroke-linejoin="bevel"/>
<path d="M89.5888 18.1414H85.6331" stroke="#B49B72" stroke-linecap="square" stroke-linejoin="bevel"/>
<path d="M68.475 18.7284C68.475 18.7284 71.3739 18.9032 71.3739 22.685H71.4739C71.4739 18.9032 74.3728 18.7284 74.3728 18.7284V18.6305C74.3728 18.6305 71.4739 18.4558 71.4739 14.674H71.3739C71.3739 18.4558 68.475 18.6305 68.475 18.6305V18.7284Z" fill="#F8F8F8" stroke="#B49B72" stroke-linecap="square" stroke-linejoin="bevel"/>
<path d="M60.9649 18.6795C60.9649 19.029 60.6722 19.3156 60.3152 19.3156C59.9582 19.3156 59.6654 19.029 59.6654 18.6795C59.6654 18.3299 59.9582 18.0433 60.3152 18.0433C60.6722 18.0433 60.9649 18.3299 60.9649 18.6795Z" fill="#B49B72"/>
</svg>
