<svg width="143" height="91" viewBox="0 0 143 91" fill="none" xmlns="http://www.w3.org/2000/svg">
<path d="M65.6516 33.0403V36.4594" stroke="#B49B72" stroke-linecap="square" stroke-linejoin="bevel"/>
<path d="M67.3969 34.7467H63.9109" stroke="#B49B72" stroke-linecap="square" stroke-linejoin="bevel"/>
<path d="M99.8396 39.3364V42.7493" stroke="#B49B72" stroke-linecap="square" stroke-linejoin="bevel"/>
<path d="M101.58 41.0428H98.0881" stroke="#B49B72" stroke-linecap="square" stroke-linejoin="bevel"/>
<path d="M95.4954 14.4603C95.4954 14.4603 98.0501 14.6143 98.0501 17.9471H98.1382C98.1382 14.6143 100.693 14.4603 100.693 14.4603V14.3741C100.693 14.3741 98.1382 14.22 98.1382 10.8872H98.0501C98.0501 14.22 95.4954 14.3741 95.4954 14.3741V14.4603Z" fill="#F8F8F8" stroke="#B49B72" stroke-linecap="square" stroke-linejoin="bevel"/>
<path d="M46.6889 45.4783C46.6889 45.7864 46.4309 46.0389 46.1163 46.0389C45.8017 46.0389 45.5437 45.7864 45.5437 45.4783C45.5437 45.1703 45.8017 44.9177 46.1163 44.9177C46.4309 44.9177 46.6889 45.1703 46.6889 45.4783Z" fill="#B49B72"/>
<path d="M90.7316 20.0909C90.7316 20.0909 90.2848 19.8321 89.58 19.6227C88.567 19.3146 87.0253 19.1052 85.5214 19.8752C84.6971 20.3003 83.8853 21.0149 83.1806 22.1793C80.2923 26.9413 80.6258 31.5063 77.5173 35.3134C74.4088 39.1206 71.187 42.5151 67.5248 44.4618C65.6622 45.4475 63.6927 45.9588 62.2013 46.2175C60.9617 44.8006 59.5899 43.2235 58.086 41.4739C54.1469 36.8844 54.4993 32.0977 54.8517 30.1941C54.9209 29.8121 55.311 28.2166 55.9151 27.964C56.4059 27.7545 57.0918 27.5943 58.1238 27.7052C61.6413 28.0687 68.0785 28.5739 71.2625 22.629C71.2625 22.629 61.9371 19.1483 58.8286 19.9492C56.2423 20.6145 55.053 25.0932 54.5874 26.6764C54.9587 25.087 57.2114 19.0805 51.1517 17.9901C46.0107 17.0661 42.7134 16.7211 42.0968 16.7211C42.0968 16.7211 40.8508 20.5837 44.318 24.2738C45.9855 26.0481 48.9934 26.9167 51.5418 27.3849C52.1711 27.5019 52.5612 28.118 52.3913 28.7279C52.2592 29.2084 52.0893 29.7012 51.976 29.9908C49.0877 37.3218 51.2712 43.0141 55.0908 48.232C53.3478 48.9898 51.6928 49.9261 50.1826 51.0782C45.9289 54.3186 42.0213 59.3579 42.0213 66.5472C42.0213 75.2088 45.6457 83.3777 59.7536 83.3777C72.6029 83.3777 79.21 70.0648 72.5336 58.3968C73.5719 57.8486 74.6353 57.1031 75.7428 56.0682C75.7428 56.0682 79.1848 64.3294 76.7433 71.3955V73.8967L77.8508 77.2664H80.7391L79.2981 73.681V70.8903C79.2981 70.8903 81.6326 60.1711 83.8539 56.3824C86.0751 52.5937 91.6251 45.7432 91.8516 40.0878C92.0719 34.4325 88.2964 29.3378 88.2964 29.3378L89.5171 28.6786C89.5171 28.6786 91.6251 29.6766 93.9596 29.3378L94.0729 32.264L95.2936 34.3278L95.9607 30.958L98.4021 27.6991L90.7379 20.0909H90.7316ZM50.9755 68.5185C50.6042 62.1301 55.0468 59.3024 61.9685 59.555C62.7928 59.5858 63.6046 59.6413 64.41 59.6905C66.0838 62.0993 67.2668 64.5204 67.4115 67.0585C68.0408 77.9687 51.4663 76.9523 50.9755 68.5185Z" fill="#F8F8F8" stroke="#B49B72" stroke-linecap="square" stroke-linejoin="bevel"/>
<path d="M89.5803 19.6228C90.285 19.8384 90.7318 20.091 90.7318 20.091L92.1225 21.4709C91.9903 18.3352 91.0276 11.1336 84.993 9.39019C82.9291 8.79262 81.0413 8.91584 79.4619 9.52573C85.8677 9.81527 88.7497 17.0477 89.5803 19.6228Z" fill="#B49B72"/>
<path d="M90.498 24.6129C90.498 24.6129 91.8069 24.0769 92.9584 23.8982C92.9584 23.8982 91.379 22.5553 90.498 24.6129Z" fill="#B49B72"/>
<path d="M98.9437 51.7929L90.5684 45.0471C89.5805 47.3819 88.1647 49.7106 86.8118 51.7929C90.6691 54.0414 96.0555 54.7807 96.0555 54.7807L91.2795 60.6455L89.8385 61.625L88.064 62.0624V65.1057L91.7325 62.9311L99.8373 54.8854L98.95 51.799L98.9437 51.7929Z" fill="#B49B72"/>
<path d="M89.5044 28.6787C89.5044 28.6787 86.8364 27.3173 86.2826 24.927C86.2826 24.927 86.0624 27.3358 88.2837 29.3379L89.5044 28.6787Z" fill="#B49B72" stroke="#B49B72" stroke-linecap="square" stroke-linejoin="bevel"/>
<path d="M64.408 59.6907C64.603 59.9741 64.7918 60.2574 64.9743 60.5347C64.9932 60.5655 65.012 60.5963 65.0372 60.6271C65.2071 60.8981 65.377 61.1692 65.5343 61.4403C65.5532 61.4772 65.5784 61.5142 65.5972 61.5511C65.7546 61.8222 65.9056 62.0994 66.044 62.3766C66.0566 62.4013 66.0692 62.4259 66.0818 62.4567C66.1384 62.5676 66.195 62.6785 66.2454 62.7894C72.3932 61.2185 72.5316 58.397 72.5316 58.397C69.7188 59.8817 67.1137 59.8447 64.408 59.6845V59.6907Z" fill="#B49B72" stroke="#B49B72" stroke-linecap="square" stroke-linejoin="bevel"/>
<path d="M61.8297 46.2793C61.9493 46.2608 62.0751 46.2361 62.201 46.2177C61.8109 45.7741 61.4081 45.3121 60.9928 44.8315C57.9347 45.4476 55.4932 46.2176 54.0459 46.729C54.3794 47.2341 54.7318 47.7393 55.0968 48.2321C57.2362 47.3019 59.5078 46.6489 61.836 46.2793H61.8297Z" fill="#B49B72" stroke="#B49B72" stroke-linecap="square" stroke-linejoin="bevel"/>
<path d="M74.5674 57.0662C74.9513 56.7644 75.3414 56.444 75.7378 56.0744L74.5171 51.7928C74.5171 51.7928 74.5863 54.4049 74.5674 57.0662Z" fill="#B49B72" stroke="#B49B72" stroke-linecap="square" stroke-linejoin="bevel"/>
<path d="M89.8353 20.5221C89.8353 20.5221 89.7534 20.1771 89.571 19.6165C88.7278 16.986 85.7451 9.50098 79.0625 9.50098C72.3798 9.50098 69.1077 16.1666 72.1407 20.516C72.1407 20.516 71.6939 12.3964 79.0625 12.3964C82.8632 12.3964 84.6565 16.1913 85.5123 19.8629C85.6444 20.4359 85.7577 21.0026 85.8458 21.5509" fill="#F8F8F8"/>
<path d="M89.8353 20.5221C89.8353 20.5221 89.7534 20.1771 89.571 19.6165C88.7278 16.986 85.7451 9.50098 79.0625 9.50098C72.3798 9.50098 69.1077 16.1666 72.1407 20.516C72.1407 20.516 71.6939 12.3964 79.0625 12.3964C82.8632 12.3964 84.6565 16.1913 85.5123 19.8629C85.6444 20.4359 85.7577 21.0026 85.8458 21.5509" stroke="#B49B72" stroke-linecap="square" stroke-linejoin="bevel"/>
<path d="M71.3178 81.7391C71.1164 81.6343 66.8815 79.854 66.8815 79.854L69.7887 78.2954L83.003 76.823L87.2252 76.8107L88.3453 76.823L92.5676 76.8107C92.5676 76.8107 94.3169 78.6157 94.1218 78.4863C93.9205 78.3508 89.629 80.0203 89.629 80.0203L95.8397 79.8601C95.8397 79.8601 98.2875 83.0328 98.3504 83.1929C98.4196 83.3531 98.3504 84 98.3504 84H46.8462L48.7025 81.9054H54.3154L71.3115 81.7452L71.3178 81.7391Z" fill="#B49B72"/>
<path d="M84.9924 21.4709L81.5504 19.3394C81.5504 19.3394 81.2547 24.0337 84.9924 24.0337" fill="#F8F8F8"/>
<path d="M84.9924 21.4709L81.5504 19.3394C81.5504 19.3394 81.2547 24.0337 84.9924 24.0337" stroke="#B49B72" stroke-linecap="square" stroke-linejoin="bevel"/>
<path d="M46.2026 17.2942C46.2026 17.2942 45.6111 21.2431 47.6436 23.7442" stroke="#B49B72" stroke-linecap="square" stroke-linejoin="bevel"/>
<path d="M49.8218 17.8672C49.8218 17.8672 49.2303 21.8161 51.2627 24.3172" stroke="#B49B72" stroke-linecap="square" stroke-linejoin="bevel"/>
<path d="M67.6712 21.4155C67.6712 21.4155 66.5448 25.2535 63.6377 26.7136" stroke="#B49B72" stroke-linecap="square" stroke-linejoin="bevel"/>
<path d="M64.1353 20.479C64.1353 20.479 63.0089 24.317 60.1018 25.777" stroke="#B49B72" stroke-linecap="square" stroke-linejoin="bevel"/>
<path d="M65.6516 33.0403V36.4594" stroke="#B49B72" stroke-linecap="square" stroke-linejoin="bevel"/>
<path d="M67.3969 34.7467H63.9109" stroke="#B49B72" stroke-linecap="square" stroke-linejoin="bevel"/>
<path d="M99.8396 39.3364V42.7493" stroke="#B49B72" stroke-linecap="square" stroke-linejoin="bevel"/>
<path d="M101.58 41.0428H98.0881" stroke="#B49B72" stroke-linecap="square" stroke-linejoin="bevel"/>
<path d="M95.4954 14.4603C95.4954 14.4603 98.0501 14.6143 98.0501 17.9471H98.1382C98.1382 14.6143 100.693 14.4603 100.693 14.4603V14.3741C100.693 14.3741 98.1382 14.22 98.1382 10.8872H98.0501C98.0501 14.22 95.4954 14.3741 95.4954 14.3741V14.4603Z" fill="#F8F8F8" stroke="#B49B72" stroke-linecap="square" stroke-linejoin="bevel"/>
<path d="M46.6889 45.4783C46.6889 45.7864 46.4309 46.0389 46.1163 46.0389C45.8017 46.0389 45.5437 45.7864 45.5437 45.4783C45.5437 45.1703 45.8017 44.9177 46.1163 44.9177C46.4309 44.9177 46.6889 45.1703 46.6889 45.4783Z" fill="#B49B72"/>
</svg>
