<svg width="143" height="91" viewBox="0 0 143 91" fill="none" xmlns="http://www.w3.org/2000/svg">
<path d="M58.8274 28.3958V31.8595" stroke="#B49B72" stroke-linecap="square" stroke-linejoin="bevel"/>
<path d="M60.5955 30.1277H57.0576" stroke="#B49B72" stroke-linecap="square" stroke-linejoin="bevel"/>
<path d="M48.6426 42.8694C48.6426 42.8694 51.2354 43.0257 51.2354 46.4082H51.3248C51.3248 43.0257 53.9175 42.8694 53.9175 42.8694V42.7819C53.9175 42.7819 51.3248 42.6256 51.3248 39.2432H51.2354C51.2354 42.6256 48.6426 42.7819 48.6426 42.7819V42.8694Z" fill="#F8F8F8" stroke="#B49B72" stroke-linecap="square" stroke-linejoin="bevel"/>
<path d="M41.8086 43.1321V46.5958" stroke="#B49B72" stroke-linecap="square" stroke-linejoin="bevel"/>
<path d="M43.5767 44.8639H40.0388" stroke="#B49B72" stroke-linecap="square" stroke-linejoin="bevel"/>
<path d="M102.366 70.2853C102.366 70.5979 102.104 70.8542 101.785 70.8542C101.465 70.8542 101.204 70.5979 101.204 70.2853C101.204 69.9727 101.465 69.7163 101.785 69.7163C102.104 69.7163 102.366 69.9727 102.366 70.2853Z" fill="#B49B72"/>
<path d="M63.1648 83.3148C62.9988 83.2085 59.6014 81.4704 59.6014 81.4704L62.0536 79.8886L79.673 78.2505L97.4074 78.238H100.345C100.345 78.238 101.82 80.0699 101.654 79.9386C101.488 79.8011 97.8608 81.4954 97.8608 81.4954L103.104 81.3329C103.104 81.3329 105.167 84.5527 105.224 84.7153C105.281 84.8778 105.224 85.5343 105.224 85.5343H49.1855L50.7629 83.3961H59.8887L63.1648 83.3211V83.3148Z" fill="#B49B72"/>
<path d="M45.8478 60.4318C42.5078 61.107 38.938 61.4134 36.5432 61.5572C34.6337 61.6697 32.82 62.6763 31.5236 64.3331C30.2911 65.9149 28.9373 67.8031 28.6371 68.8659C28.0624 70.9167 34.4996 67.4905 35.068 69.0222L36.0642 68.5596C36.0642 68.5596 36.1281 65.9774 31.6961 67.553L32.7562 66.1463C34.027 64.4519 35.8407 63.4078 37.7565 63.2515C39.4808 63.1139 41.6712 62.9951 43.5615 63.0827C47.3996 63.2515 45.8478 60.4318 45.8478 60.4318Z" fill="#F8F8F8" stroke="#B49B72" stroke-linecap="square" stroke-linejoin="bevel"/>
<path d="M35.7763 67.9968C35.7763 67.9968 34.8439 68.6095 35.0802 70.3477C35.3165 72.0858 35.0866 73.2424 34.6204 73.9114C34.6204 73.9114 35.4186 73.8676 35.7252 72.8235C35.7252 72.8048 35.7316 72.7922 35.7379 72.7735C36.0381 71.6794 35.8657 73.3675 35.8657 73.3675C35.8657 73.3675 36.6512 72.6922 36.6512 70.8103C36.6512 68.9284 35.7763 67.9968 35.7763 67.9968Z" fill="#B49B72" stroke="#B49B72" stroke-miterlimit="10"/>
<path d="M113.357 34.6978C113.07 34.0726 109.283 31.7781 109.283 31.7781C108.453 30.4901 106.422 29.3085 106.422 29.3085C106.422 29.3085 104.206 23.6565 93.2792 23.8628L94.4862 25.6322C94.4862 25.6322 87.0144 21.7371 79.7597 25.4759C76.5411 27.1327 74.8041 29.0209 73.8717 30.6152C71.9942 31.4342 69.9314 32.6846 68.6414 34.5415C65.7485 38.6805 65.2568 46.4957 65.2568 46.4957L69.0054 43.8135L64.6692 49.7468C61.1441 52.6853 58.1745 53.3668 53.3594 54.561C48.5442 55.7552 45.6832 60.4568 45.6832 60.4568C45.6832 60.4568 46.2644 69.4287 42.5668 72.8986C38.8692 76.3686 38.5563 75.4308 38.5563 75.4308L37.7133 81.039L37.3621 83.3648L38.7734 85.6031H46.1494C46.1494 85.6031 47.0243 83.3835 44.7061 83.3835C42.388 83.3835 42.1197 83.321 42.1197 83.321C42.1197 83.321 40.9383 83.4648 41.6025 81.039L42.5476 77.5565C42.5476 77.5565 45.9961 77.2751 50.8305 74.5242C55.6712 71.7732 57.3699 68.0219 59.8924 67.0528C62.4213 66.0838 67.9645 67.0028 72.7988 68.0219C74.4145 68.3595 76.4645 68.4408 78.6996 68.297L78.1249 73.7489L77.7736 76.0747L79.185 78.313H86.561C86.561 78.313 87.4359 76.0935 85.1177 76.0935C82.7995 76.0935 82.5313 76.031 82.5313 76.031C82.5313 76.031 81.3499 76.1748 82.014 73.7489L82.9592 70.2665C82.9592 70.2665 85.1241 68.5846 88.4193 66.5214C92.4745 65.3147 96.0891 63.5766 97.9411 61.5322L96.8491 64.2644C96.8491 64.2644 100.253 62.7513 101.837 59.7628L101.511 61.9386C101.511 61.9386 104.206 59.7691 104.397 57.7996C104.589 55.8302 105.707 53.6544 105.707 53.6544L105.215 56.9181C105.215 56.9181 106.882 55.2487 107.182 52.3165C110.503 49.8156 108.657 43.4134 109.098 43.7135C109.564 44.0323 110.752 44.8701 110.752 44.8701C112.821 42.1254 111.403 39.3807 111.403 39.3807L112.316 37.5551C112.316 37.5551 113.632 35.3293 113.338 34.7041L113.357 34.6978Z" fill="#F8F8F8" stroke="#B49B72" stroke-linecap="square" stroke-linejoin="bevel"/>
<path d="M108.293 32.8408C108.293 32.8408 106.9 31.3903 105.674 33.0221C105.674 33.0221 106.568 32.8783 107.539 32.8408C108.721 33.5911 109.442 33.5661 109.442 33.5661L108.293 32.8408Z" fill="#B49B72"/>
<path d="M110.157 35.0292C110.106 35.3605 110.106 35.7607 110.962 35.967C111.243 36.0358 111.53 36.1233 111.798 36.2296L112.756 36.6047" fill="#F8F8F8"/>
<path d="M110.157 35.0292C110.106 35.3605 110.106 35.7607 110.962 35.967C111.243 36.0358 111.53 36.1233 111.798 36.2296L112.756 36.6047" stroke="#B49B72" stroke-linecap="square" stroke-linejoin="bevel"/>
<path d="M59.9022 67.0591C59.7298 67.1278 59.5574 67.2091 59.3849 67.3029C59.9597 68.5721 61.007 73.2737 58.8166 75.7934C56.6261 78.313 54.0908 79.6697 54.0908 79.6697L56.0003 83.3898H59.8831L59.1614 79.676C59.1614 79.676 66.6971 75.0368 67.853 72.5922C68.6129 70.9854 69.1302 68.7284 69.3984 67.3654C65.5731 66.6902 61.8372 66.3151 59.8894 67.0591H59.9022Z" fill="#B49B72"/>
<path d="M99.5338 34.0976C101.009 32.0532 100.677 30.1212 100.677 30.1212C103.659 28.9646 106.418 29.3085 106.418 29.3085C106.418 29.3085 104.202 23.6565 93.2754 23.8628L94.4823 25.6322C94.4823 25.6322 87.0105 21.7371 79.7559 25.4759C76.5373 27.1327 74.8002 29.0209 73.8678 30.6152C71.9903 31.4342 69.9276 32.6846 68.6376 34.5415C65.7447 38.6805 65.2529 46.4957 65.2529 46.4957L69.0016 43.8135C69.0016 43.8135 68.082 51.0848 75.5602 54.9049L75.7007 52.4415C75.7007 52.4415 75.8923 55.6926 78.4403 57.612L80.9118 51.7475C80.9118 51.7475 85.0947 50.347 86.8892 57.2744C88.6837 64.1768 97.9373 61.5322 97.9373 61.5322L96.8452 64.2644C96.8452 64.2644 100.249 62.7513 101.833 59.7628L101.507 61.9386C101.507 61.9386 104.202 59.7691 104.394 57.7996C104.585 55.8302 105.703 53.6544 105.703 53.6544L105.211 56.9181C105.211 56.9181 106.878 55.2487 107.178 52.3165C110.499 49.8156 108.653 43.4134 109.094 43.7135C109.094 43.7135 106.788 41.2564 104.426 41.2501C102.063 41.2439 94.8527 40.5686 99.521 34.1039L99.5338 34.0976Z" fill="#B49B72"/>
<path d="M88.7109 66.4401L96.4382 78.3942H100.046L94.6117 64.0267C92.9194 64.9583 90.8886 65.7711 88.7173 66.4338L88.7109 66.4401Z" fill="#B49B72"/>
<path d="M66.576 64.0268C59.3724 64.5519 58.3889 67.9969 58.3889 67.9969C58.8806 67.5842 59.3724 67.2591 59.9024 67.0528C60.3622 66.8778 60.9178 66.7652 61.5501 66.7027C63.1721 64.802 66.5823 64.0205 66.5823 64.0205L66.576 64.0268Z" fill="#B49B72" stroke="#B49B72" stroke-linecap="square" stroke-linejoin="bevel"/>
<path d="M78.7114 68.2971L79.4203 64.9834C79.4203 64.9834 84.8677 62.2387 84.9635 59.0688" fill="#F8F8F8"/>
<path d="M78.7114 68.2971L79.4203 64.9834C79.4203 64.9834 84.8677 62.2387 84.9635 59.0688" stroke="#B49B72" stroke-linecap="square" stroke-linejoin="bevel"/>
<path d="M58.8274 28.3958V31.8595" stroke="#B49B72" stroke-linecap="square" stroke-linejoin="bevel"/>
<path d="M60.5955 30.1277H57.0576" stroke="#B49B72" stroke-linecap="square" stroke-linejoin="bevel"/>
<path d="M48.6426 42.8694C48.6426 42.8694 51.2354 43.0257 51.2354 46.4082H51.3248C51.3248 43.0257 53.9175 42.8694 53.9175 42.8694V42.7819C53.9175 42.7819 51.3248 42.6256 51.3248 39.2432H51.2354C51.2354 42.6256 48.6426 42.7819 48.6426 42.7819V42.8694Z" fill="#F8F8F8" stroke="#B49B72" stroke-linecap="square" stroke-linejoin="bevel"/>
<path d="M41.8086 43.1321V46.5958" stroke="#B49B72" stroke-linecap="square" stroke-linejoin="bevel"/>
<path d="M43.5767 44.8639H40.0388" stroke="#B49B72" stroke-linecap="square" stroke-linejoin="bevel"/>
<path d="M102.366 70.2853C102.366 70.5979 102.104 70.8542 101.785 70.8542C101.465 70.8542 101.204 70.5979 101.204 70.2853C101.204 69.9727 101.465 69.7163 101.785 69.7163C102.104 69.7163 102.366 69.9727 102.366 70.2853Z" fill="#B49B72"/>
</svg>
