<svg width="143" height="91" viewBox="0 0 143 91" fill="none" xmlns="http://www.w3.org/2000/svg">
<path d="M54.6816 20.6675V24.3826" stroke="#B49B72" stroke-linecap="square" stroke-linejoin="bevel"/>
<path d="M56.5775 22.525H52.7759" stroke="#B49B72" stroke-linecap="square" stroke-linejoin="bevel"/>
<path d="M88.0782 16.6103C88.0782 16.9456 87.7974 17.2205 87.4549 17.2205C87.1124 17.2205 86.8315 16.9456 86.8315 16.6103C86.8315 16.2749 87.1124 16 87.4549 16C87.7974 16 88.0782 16.2749 88.0782 16.6103Z" fill="#B49B72"/>
<path d="M71.2515 21.311C67.6965 25.053 67.8335 27.9433 67.8335 27.9433H74.6695C74.6695 27.9433 74.8065 25.053 71.2515 21.311Z" fill="#B49B72" stroke="#B49B72" stroke-linecap="square" stroke-linejoin="bevel"/>
<path d="M72.833 19.762C72.833 20.6203 72.1275 21.3111 71.2507 21.3111C70.374 21.3111 69.6685 20.6203 69.6685 19.762C69.6685 18.9036 70.374 18.2129 71.2507 18.2129C72.1275 18.2129 72.833 18.9036 72.833 19.762Z" fill="#B49B72"/>
<path d="M54.6816 20.6675V24.3826" stroke="#B49B72" stroke-linecap="square" stroke-linejoin="bevel"/>
<path d="M56.5775 22.525H52.7759" stroke="#B49B72" stroke-linecap="square" stroke-linejoin="bevel"/>
<path d="M77.3578 41.3756C77.3578 41.3756 80.1388 41.5432 80.1388 45.1712H80.2347C80.2347 41.5432 83.0157 41.3756 83.0157 41.3756V41.2817C83.0157 41.2817 80.2347 41.114 80.2347 37.4861H80.1388C80.1388 41.114 77.3578 41.2817 77.3578 41.2817V41.3756Z" fill="#F8F8F8" stroke="#B49B72" stroke-linecap="square" stroke-linejoin="bevel"/>
<path d="M61.48 46.8276V50.5428" stroke="#B49B72" stroke-linecap="square" stroke-linejoin="bevel"/>
<path d="M63.3768 48.6852H59.582" stroke="#B49B72" stroke-linecap="square" stroke-linejoin="bevel"/>
<path d="M72.9654 60.3267V36.2588H69.5474V60.3267C69.9926 60.1255 70.5543 59.9981 71.2598 59.9981C71.9653 59.9981 72.527 60.1255 72.9722 60.3267H72.9654Z" fill="#B49B72"/>
<path d="M67.905 27.9568C61.9046 28.0507 60.3223 29.1103 53.5548 31.625C52.8082 31.9 52.13 32.1079 51.5136 32.2621C48.9312 32.8992 46.4174 31.3836 45.6365 29.0499C44.9447 26.971 42.239 26.2133 40.6842 27.7825C39.3211 29.1572 39.3896 31.7055 42.5336 33.2211C48.0065 35.8565 52.8219 35.7358 59.4318 32.1816C62.8567 30.3442 66.2268 30.7868 67.8433 31.169V28.6207C67.8433 28.6207 67.8296 28.3793 67.9118 27.9501L67.905 27.9568Z" fill="#F8F8F8" stroke="#B49B72" stroke-linecap="square" stroke-linejoin="bevel"/>
<path d="M74.6692 34.3141V27.9434H67.8332V34.3141C67.8332 34.3141 67.6277 37.8549 71.2512 37.8549C74.8747 37.8549 74.6692 34.3141 74.6692 34.3141Z" fill="#F8F8F8" stroke="#B49B72" stroke-linecap="square" stroke-linejoin="bevel"/>
<path d="M79.0884 73.0278C76.6499 73.0278 74.6772 71.0965 74.6772 68.7092V63.2974C74.6772 63.2974 74.8827 59.998 71.2592 59.998C67.6357 59.998 67.8412 63.2974 67.8412 63.2974V68.7092C67.8412 71.0965 65.8685 73.0278 63.43 73.0278H58.6831V74.4696H83.8284V73.0278H79.0816H79.0884Z" fill="#F8F8F8" stroke="#B49B72" stroke-linecap="square" stroke-linejoin="bevel"/>
<path d="M94.3039 74.4629H48.219V75.9047H94.3039V74.4629Z" fill="#B49B72"/>
<path d="M44.3201 33.9922L31.6687 59.2806H56.9647L44.3201 33.9922Z" fill="#F8F8F8" stroke="#B49B72" stroke-linecap="square" stroke-linejoin="bevel"/>
<path d="M31.669 59.2805H56.9444C55.1841 64.4643 50.1906 68.1995 44.2998 68.1995C38.4091 68.1995 33.4293 64.4643 31.6621 59.2805H31.669Z" fill="#B49B72" stroke="#B49B72" stroke-linecap="square" stroke-linejoin="bevel"/>
<path d="M74.6767 27.9568C80.677 28.0507 82.2593 29.1103 89.0268 31.625C89.7734 31.9 90.4516 32.1079 91.068 32.2621C93.6504 32.8992 96.1642 31.3836 96.9451 29.0499C97.6369 26.971 100.343 26.2133 101.897 27.7825C103.261 29.1572 103.192 31.7055 100.048 33.2211C94.5751 35.8565 89.7597 35.7358 83.1498 32.1816C79.7249 30.3442 76.3548 30.7868 74.7383 31.169V28.6207C74.7383 28.6207 74.752 28.3793 74.6698 27.9501L74.6767 27.9568Z" fill="#F8F8F8" stroke="#B49B72" stroke-linecap="square" stroke-linejoin="bevel"/>
<path d="M98.2613 33.9922L110.906 59.2806H85.6167L98.2613 33.9922Z" fill="#F8F8F8" stroke="#B49B72" stroke-linecap="square" stroke-linejoin="bevel"/>
<path d="M110.905 59.2805H85.6293C87.3897 64.4643 92.3831 68.1995 98.2739 68.1995C104.165 68.1995 109.144 64.4643 110.912 59.2805H110.905Z" fill="#B49B72" stroke="#B49B72" stroke-linecap="square" stroke-linejoin="bevel"/>
<path d="M77.3578 41.3756C77.3578 41.3756 80.1388 41.5432 80.1388 45.1712H80.2347C80.2347 41.5432 83.0157 41.3756 83.0157 41.3756V41.2817C83.0157 41.2817 80.2347 41.114 80.2347 37.4861H80.1388C80.1388 41.114 77.3578 41.2817 77.3578 41.2817V41.3756Z" fill="#F8F8F8" stroke="#B49B72" stroke-linecap="square" stroke-linejoin="bevel"/>
<path d="M61.48 46.8276V50.5428" stroke="#B49B72" stroke-linecap="square" stroke-linejoin="bevel"/>
<path d="M63.3768 48.6852H59.582" stroke="#B49B72" stroke-linecap="square" stroke-linejoin="bevel"/>
<path d="M88.0782 16.6103C88.0782 16.9456 87.7974 17.2205 87.4549 17.2205C87.1124 17.2205 86.8315 16.9456 86.8315 16.6103C86.8315 16.2749 87.1124 16 87.4549 16C87.7974 16 88.0782 16.2749 88.0782 16.6103Z" fill="#B49B72"/>
</svg>
