<svg width="143" height="91" viewBox="0 0 143 91" fill="none" xmlns="http://www.w3.org/2000/svg">
<path d="M90.0344 18.1001V22.0833" stroke="#B49B72" stroke-linecap="square" stroke-linejoin="bevel"/>
<path d="M92.0749 20.0918H87.999" stroke="#B49B72" stroke-linecap="square" stroke-linejoin="bevel"/>
<path d="M36.6492 45.7379V49.7283" stroke="#B49B72" stroke-linecap="square" stroke-linejoin="bevel"/>
<path d="M38.6854 47.7367H34.6095" stroke="#B49B72" stroke-linecap="square" stroke-linejoin="bevel"/>
<path d="M52.7019 69.1984C52.7019 69.1984 55.6836 69.3782 55.6836 73.2679H55.7864C55.7864 69.3782 58.768 69.1984 58.768 69.1984V69.0978C58.768 69.0978 55.7864 68.9181 55.7864 65.0283H55.6836C55.6836 68.9181 52.7019 69.0978 52.7019 69.0978V69.1984Z" fill="#F8F8F8" stroke="#B49B72" stroke-linecap="square" stroke-linejoin="bevel"/>
<path d="M99.4174 14.7567C99.4174 15.1162 99.1163 15.411 98.7491 15.411C98.3819 15.411 98.0808 15.1162 98.0808 14.7567C98.0808 14.3972 98.3819 14.1024 98.7491 14.1024C99.1163 14.1024 99.4174 14.3972 99.4174 14.7567Z" fill="#B49B72"/>
<path d="M46.8238 16.4176C46.699 16.5254 46.5815 16.6477 46.4566 16.7627C39.0319 24.0245 38.3783 35.7512 44.9511 43.7607C45.781 44.7745 46.6843 45.6733 47.6684 46.3994C47.9254 46.5864 48.344 46.9243 48.7186 47.2694C49.1959 47.708 49.1959 48.4485 48.7112 48.8799C46.7651 50.6271 44.65 52.9494 44.18 55.358C43.2106 60.3694 46.4052 63.0512 46.4052 63.0512C46.934 62.7277 49.5999 60.7001 53.5289 57.1986C58.1703 53.0717 52.934 49.0669 51.737 47.8878C53.0001 49.0166 56.4885 52.2592 59.0882 51.4755C62.2094 50.5336 68.3637 42.6247 68.3637 42.6247C62.3563 39.1664 57.0687 42.9842 54.2339 45.1484C53.3967 45.7811 52.721 46.004 52.1849 46.0831C51.524 46.1766 50.3122 45.0118 50.0405 44.717C48.9756 43.5666 46.9266 40.8416 46.5594 36.7722C46.5007 35.9309 46.4933 35.1329 46.5374 34.3779C46.5668 34.0184 46.6035 33.6518 46.6623 33.2779L46.6402 33.2635C48.1237 21.091 62.3049 20.71 64.1776 30.2869C66.2633 40.9783 74.8484 44.9758 74.8484 44.9758C84.1826 35.8375 84.1018 24.9879 77.0956 18.1288C70.0969 11.2768 56.3857 7.725 46.8385 16.4176H46.8238Z" fill="#F8F8F8" stroke="#B49B72" stroke-linecap="square" stroke-linejoin="bevel"/>
<path d="M65.7435 45.7667C65.7435 45.7667 63.6431 43.4731 60.588 43.998" stroke="#B49B72" stroke-linecap="square" stroke-linejoin="bevel"/>
<path d="M62.9748 48.6571C62.9748 48.6571 60.8744 46.3635 57.8193 46.8884" stroke="#B49B72" stroke-linecap="square" stroke-linejoin="bevel"/>
<path d="M49.0566 61.0165C49.0566 61.0165 47.1178 58.5864 48.0211 55.5378" stroke="#B49B72" stroke-linecap="square" stroke-linejoin="bevel"/>
<path d="M52.055 58.3563C52.055 58.3563 50.1162 55.9261 51.0195 52.8776" stroke="#B49B72" stroke-linecap="square" stroke-linejoin="bevel"/>
<path d="M65.0886 11.7584C65.0886 11.7584 58.7507 10.1191 52.9784 16.8561L65.2501 20.3719" stroke="#B49B72" stroke-linecap="square" stroke-linejoin="bevel"/>
<path d="M64.1619 30.2941C64.1619 30.2941 65.1607 26.2174 70.1619 24.4199" stroke="#B49B72" stroke-linecap="square" stroke-linejoin="bevel"/>
<path d="M75.957 10.6297C74.4515 13.0815 67.6877 12.233 64.8456 11.7657C69.6045 12.7363 73.9962 15.1162 77.0806 18.1359C78.4099 19.4373 79.4821 20.8753 80.2973 22.4283C84.1382 15.8639 78.3291 5 78.3291 5C78.3291 5 77.8297 7.5668 75.957 10.6297Z" fill="#B49B72"/>
<path d="M75.8341 31.5378C75.8341 31.5378 76.8623 33.9536 77.2074 36.0747C77.2074 36.0747 79.7852 33.1628 75.8341 31.5378Z" fill="#B49B72"/>
<path d="M101.916 75.3747C102.041 75.2669 102.158 75.1447 102.283 75.0296C109.708 67.7678 110.361 56.0411 103.789 48.0316C102.959 47.0178 102.055 46.1191 101.071 45.3929C100.814 45.2059 100.396 44.868 100.021 44.5229C99.5438 44.0843 99.5438 43.3438 100.028 42.9124C101.975 41.1652 104.09 38.8429 104.56 36.4343C105.529 31.4229 102.334 28.7411 102.334 28.7411C101.806 29.0646 99.1398 31.0922 95.2108 34.5936C90.5694 38.7206 95.8057 42.7254 97.0028 43.9046C95.7396 42.7758 92.2512 39.5331 89.6514 40.3168C86.5303 41.2587 80.376 49.1676 80.376 49.1676C86.3834 52.6259 91.671 48.8081 94.5058 46.6439C95.343 46.0112 96.0187 45.7883 96.5548 45.7092C97.2157 45.6158 98.4275 46.7805 98.6992 47.0753C99.7641 48.2257 101.813 50.9507 102.18 55.0201C102.239 55.8614 102.246 56.6594 102.202 57.4144C102.173 57.7739 102.136 58.1406 102.077 58.5144L102.099 58.5288C100.616 70.7013 86.4348 71.0824 84.5621 61.5054C82.4764 50.8141 73.8913 46.8165 73.8913 46.8165C64.5571 55.9548 64.6379 66.8044 71.6441 73.6635C78.6428 80.5155 92.354 84.0673 101.901 75.3747H101.916Z" fill="#F8F8F8" stroke="#B49B72" stroke-linecap="square" stroke-linejoin="bevel"/>
<path d="M82.9958 46.0254C82.9958 46.0254 85.0962 48.319 88.1513 47.8013" stroke="#B49B72" stroke-linecap="square" stroke-linejoin="bevel"/>
<path d="M85.7645 43.135C85.7645 43.135 87.8649 45.4286 90.92 44.9037" stroke="#B49B72" stroke-linecap="square" stroke-linejoin="bevel"/>
<path d="M99.6827 30.7756C99.6827 30.7756 101.622 33.2058 100.718 36.2543" stroke="#B49B72" stroke-linecap="square" stroke-linejoin="bevel"/>
<path d="M96.6881 33.4359C96.6881 33.4359 98.6269 35.8733 97.7236 38.9146" stroke="#B49B72" stroke-linecap="square" stroke-linejoin="bevel"/>
<path d="M83.6517 80.0337C83.6517 80.0337 89.9895 81.673 95.7619 74.936L83.4901 71.4202" stroke="#B49B72" stroke-linecap="square" stroke-linejoin="bevel"/>
<path d="M84.5782 61.4982C84.5782 61.4982 83.5794 65.5748 78.5781 67.3723" stroke="#B49B72" stroke-linecap="square" stroke-linejoin="bevel"/>
<path d="M72.7831 81.1697C74.2886 78.718 81.0523 79.5664 83.8945 80.0337C79.1356 79.0631 74.7439 76.6832 71.6594 73.6635C70.3302 72.3621 69.258 70.9241 68.4428 69.3711C64.6019 75.9355 70.4109 86.7994 70.4109 86.7994C70.4109 86.7994 70.9103 84.2326 72.7831 81.1697Z" fill="#B49B72"/>
<path d="M72.9059 60.2543C72.9059 60.2543 71.8778 57.8385 71.5326 55.7103C71.5326 55.7103 68.9549 58.6222 72.9059 60.2543Z" fill="#B49B72"/>
<path d="M90.0344 18.1001V22.0833" stroke="#B49B72" stroke-linecap="square" stroke-linejoin="bevel"/>
<path d="M92.0749 20.0918H87.999" stroke="#B49B72" stroke-linecap="square" stroke-linejoin="bevel"/>
<path d="M36.6492 45.7379V49.7283" stroke="#B49B72" stroke-linecap="square" stroke-linejoin="bevel"/>
<path d="M38.6854 47.7367H34.6095" stroke="#B49B72" stroke-linecap="square" stroke-linejoin="bevel"/>
<path d="M52.7019 69.1984C52.7019 69.1984 55.6836 69.3782 55.6836 73.2679H55.7864C55.7864 69.3782 58.768 69.1984 58.768 69.1984V69.0978C58.768 69.0978 55.7864 68.9181 55.7864 65.0283H55.6836C55.6836 68.9181 52.7019 69.0978 52.7019 69.0978V69.1984Z" fill="#F8F8F8" stroke="#B49B72" stroke-linecap="square" stroke-linejoin="bevel"/>
<path d="M99.4174 14.7567C99.4174 15.1162 99.1163 15.411 98.7491 15.411C98.3819 15.411 98.0808 15.1162 98.0808 14.7567C98.0808 14.3972 98.3819 14.1024 98.7491 14.1024C99.1163 14.1024 99.4174 14.3972 99.4174 14.7567Z" fill="#B49B72"/>
</svg>
