<svg width="143" height="91" viewBox="0 0 143 91" fill="none" xmlns="http://www.w3.org/2000/svg">
<path d="M88.411 43.2346V47.4688" stroke="#B49B72" stroke-linecap="square" stroke-linejoin="bevel"/>
<path d="M90.5714 45.3556H86.2543" stroke="#B49B72" stroke-linecap="square" stroke-linejoin="bevel"/>
<path d="M87.1752 25.3366C87.1752 25.3366 90.339 25.5273 90.339 29.6547H90.4481C90.4481 25.5273 93.612 25.3366 93.612 25.3366V25.2298C93.612 25.2298 90.4481 25.039 90.4481 20.9116H90.339C90.339 25.039 87.1752 25.2298 87.1752 25.2298V25.3366Z" fill="#F8F8F8" stroke="#B49B72" stroke-linecap="square" stroke-linejoin="bevel"/>
<path d="M54.6055 33.0573V37.2838" stroke="#B49B72" stroke-linecap="square" stroke-linejoin="bevel"/>
<path d="M56.7669 35.1707H52.4497" stroke="#B49B72" stroke-linecap="square" stroke-linejoin="bevel"/>
<path d="M42.9284 52.1075C42.9284 52.4889 42.6089 52.8017 42.2193 52.8017C41.8296 52.8017 41.5101 52.4889 41.5101 52.1075C41.5101 51.726 41.8296 51.4132 42.2193 51.4132C42.6089 51.4132 42.9284 51.726 42.9284 52.1075Z" fill="#B49B72"/>
<path d="M67.6469 43.2041C67.6469 43.2041 74.1538 47.1637 74.9331 52.8169C74.9331 52.8169 70.6237 48.0792 66.2286 44.8368C66.2286 44.8368 66.7585 43.8602 67.6391 43.2117" fill="#F8F8F8"/>
<path d="M67.6469 43.2041C67.6469 43.2041 74.1538 47.1637 74.9331 52.8169C74.9331 52.8169 70.6237 48.0792 66.2286 44.8368C66.2286 44.8368 66.7585 43.8602 67.6391 43.2117" stroke="#B49B72" stroke-linecap="square" stroke-linejoin="bevel"/>
<path d="M67.6449 43.2041C67.6449 43.2041 64.746 46.0117 65.1123 48.4301C63.7719 47.6825 62.9459 47.2476 62.9459 47.2476C62.9459 47.2476 63.5226 43.2194 67.6449 43.2041Z" fill="#F8F8F8" stroke="#B49B72" stroke-linecap="square" stroke-linejoin="bevel"/>
<path d="M74.8445 46.3702C74.8445 46.3702 81.3515 50.3298 82.1307 55.9831C82.1307 55.9831 77.8214 51.2453 73.4263 48.0029C73.4263 48.0029 73.9562 47.0264 74.8367 46.3779" fill="#F8F8F8"/>
<path d="M74.8445 46.3702C74.8445 46.3702 81.3515 50.3298 82.1307 55.9831C82.1307 55.9831 77.8214 51.2453 73.4263 48.0029C73.4263 48.0029 73.9562 47.0264 74.8367 46.3779" stroke="#B49B72" stroke-linecap="square" stroke-linejoin="bevel"/>
<path d="M74.8465 46.3702C74.8465 46.3702 71.9476 49.1778 72.3138 51.5963C70.9735 50.8486 70.1475 50.4137 70.1475 50.4137C70.1475 50.4137 70.7241 46.3855 74.8465 46.3702Z" fill="#F8F8F8" stroke="#B49B72" stroke-linecap="square" stroke-linejoin="bevel"/>
<path d="M80.8145 49.4906C80.8145 49.4906 87.3214 53.4502 88.1007 59.1034C88.1007 59.1034 83.7913 54.3657 79.3962 51.1233C79.3962 51.1233 79.9261 50.1467 80.8067 49.4982" fill="#F8F8F8"/>
<path d="M80.8145 49.4906C80.8145 49.4906 87.3214 53.4502 88.1007 59.1034C88.1007 59.1034 83.7913 54.3657 79.3962 51.1233C79.3962 51.1233 79.9261 50.1467 80.8067 49.4982" stroke="#B49B72" stroke-linecap="square" stroke-linejoin="bevel"/>
<path d="M80.8164 49.4906C80.8164 49.4906 77.9175 52.2982 78.2838 54.7166C76.9435 53.969 76.1174 53.5341 76.1174 53.5341C76.1174 53.5341 76.6941 49.5059 80.8164 49.4906Z" fill="#F8F8F8" stroke="#B49B72" stroke-linecap="square" stroke-linejoin="bevel"/>
<path d="M87.1031 75.8801C87.1031 80.8009 87.7577 82.6548 94.5997 85.0199C101.442 87.3849 106.819 82.3573 106.819 82.3573L96.9609 80.2287L105.681 78.7181C105.681 78.7181 100.764 75.0408 95.0829 73.7744C92.2619 73.1412 89.3241 73.927 87.1031 75.8801Z" fill="#B49B72"/>
<path d="M52.8999 15.0523C52.8999 15.0523 53.6324 13 56.7885 13C59.9445 13 60.0458 15.2125 60.0458 20.1867C60.0458 25.161 61.5654 26.5114 61.5654 26.5114C61.5654 26.5114 52.8999 25.1839 52.8999 17.9971V15.0523Z" fill="#B49B72"/>
<path d="M54.796 47.7207C55.4506 47.3239 56.1987 47.0569 57.0092 46.8891C52.5361 43.6772 42.881 35.8572 42.881 28.2432C42.881 18.3405 52.9024 17.9972 52.9024 17.9972V15.0523C52.9024 15.0523 39.7327 11.5047 36.9897 26.3893C34.7765 38.3977 50.1905 51.7413 54.1025 54.9074C52.5128 51.9396 52.279 49.2618 54.7882 47.7207H54.796Z" fill="#F8F8F8" stroke="#B49B72" stroke-linecap="square" stroke-linejoin="bevel"/>
<path d="M84.9481 75.8801L82.3765 79.092C83.5532 81.2664 86.569 80.7781 87.6443 80.2288C87.1924 79.0691 87.1066 77.6806 87.1066 75.8801H84.9481Z" fill="#B49B72"/>
<path d="M77.552 73.1565C77.552 73.1565 75.0506 77.818 81.464 80.2288L85.8123 74.812L83.0615 73.1641C82.142 73.332 81.1367 73.4388 80.0067 73.4311C79.1807 73.4311 78.3625 73.3243 77.5676 73.1641L77.552 73.1565Z" fill="#B49B72"/>
<path d="M95.4122 63.0783C97.6409 58.7678 99.0514 57.4708 106.119 58.9051C113.187 60.3318 115.627 67.488 115.627 67.488L106.018 64.3066L112.977 70.0896C112.977 70.0896 107 70.7991 101.452 68.9986C98.693 68.106 96.472 65.9164 95.4122 63.0707V63.0783Z" fill="#B49B72"/>
<path d="M93.5198 61.9721L92.7172 57.8447C94.7277 56.5401 97.1512 58.5084 97.8526 59.546C96.933 60.3318 96.2239 61.4991 95.4135 63.0859L93.5198 61.9797V61.9721Z" fill="#B49B72"/>
<path d="M85.8027 60.5682C85.8027 60.5682 85.7169 55.2049 92.4265 56.3645L93.7824 63.3376L90.6264 63.3758C89.9016 62.7578 89.06 62.1475 88.0703 61.5753C87.3456 61.1557 86.5819 60.8276 85.8105 60.5606L85.8027 60.5682Z" fill="#B49B72"/>
<path d="M82.1119 55.6093C82.1119 55.6093 62.3496 43.0897 54.7984 47.7207C47.2473 52.3516 64.477 67.3659 69.1371 69.197C69.1371 69.197 70.0488 56.8529 82.1119 55.6093Z" fill="#F8F8F8" stroke="#B49B72" stroke-linecap="square" stroke-linejoin="bevel"/>
<path d="M82.1109 55.6093C70.0399 56.8528 69.136 69.1969 69.136 69.1969C69.136 69.1969 74.4584 73.4006 79.9912 73.4235C84.7682 73.4388 87.5813 71.6459 89.1633 69.9827C90.7452 68.3196 91.5322 66.0003 90.3088 62.9486C88.7347 59.0043 82.1109 55.6093 82.1109 55.6093Z" fill="#F8F8F8" stroke="#B49B72" stroke-linecap="square" stroke-linejoin="bevel"/>
<path d="M44.4329 22.506C44.6121 22.2313 44.8069 21.972 45.0095 21.7354C42.7964 20.4308 41.9626 18.6609 41.6665 17.3792C41.4093 17.5928 41.1677 17.8217 40.9183 18.0658C41.3469 19.4696 42.3132 21.2014 44.4329 22.506Z" fill="#B49B72"/>
<path d="M42.9122 28.9604C42.8966 28.7239 42.8811 28.4874 42.8811 28.2509C42.8811 28.1212 42.8889 28.0068 42.8889 27.8847C40.5432 29.0978 38.3145 28.5713 36.8105 27.8618C36.7872 28.2051 36.7716 28.5408 36.7794 28.8841C37.6989 29.2732 38.8133 29.586 40.0367 29.586C40.9485 29.586 41.9148 29.4105 42.9045 28.9681L42.9122 28.9604Z" fill="#B49B72"/>
<path d="M45.884 36.2234C45.697 35.9487 45.5099 35.6741 45.3307 35.3994C43.4838 37.4517 40.8655 37.7721 39.2212 37.734C39.3848 38.062 39.5641 38.3901 39.7433 38.7105C41.5278 38.6724 44.0215 38.1993 45.884 36.2234Z" fill="#B49B72"/>
<path d="M50.8616 41.8538C50.62 41.6249 50.3784 41.3961 50.1368 41.1595C48.9368 44.0358 46.147 45.2717 44.6975 45.7371C44.9235 46.0041 45.1495 46.2711 45.3833 46.5305C47.012 45.9431 49.5836 44.6232 50.8694 41.8614L50.8616 41.8538Z" fill="#B49B72"/>
<path d="M37.7151 68.7163C37.7151 68.7163 44.5181 61.1786 49.8639 58.5923C47.0741 58.7906 45.0013 59.1034 45.0013 59.1034C45.0013 59.1034 38.4944 63.063 37.7151 68.7163Z" fill="#F8F8F8" stroke="#B49B72" stroke-linecap="square" stroke-linejoin="bevel"/>
<path d="M60.9589 59.9197C60.9589 59.9197 53.135 60.3698 50.205 64.7642C50.205 64.7642 58.5198 61.4303 64.0604 61.682L60.9667 59.9197H60.9589Z" fill="#F8F8F8" stroke="#B49B72" stroke-linecap="square" stroke-linejoin="bevel"/>
<path d="M45.1566 75.102C45.1566 75.102 50.1206 66.7861 54.6092 63.3301C52.0688 64.0625 50.2063 64.7644 50.2063 64.7644C50.2063 64.7644 44.8839 69.7158 45.1566 75.0944V75.102Z" fill="#F8F8F8" stroke="#B49B72" stroke-linecap="square" stroke-linejoin="bevel"/>
<path d="M65.269 62.9333C65.269 62.9333 57.5387 64.5355 55.0684 69.2351C55.0684 69.2351 62.8065 64.6575 68.3394 64.2837L65.269 62.9333Z" fill="#F8F8F8" stroke="#B49B72" stroke-linecap="square" stroke-linejoin="bevel"/>
<path d="M51.0654 80.0762C51.0654 80.0762 55.1799 71.2492 59.3022 67.3125C56.8475 68.3272 55.063 69.2351 55.063 69.2351C55.063 69.2351 50.2627 74.751 51.0654 80.0762Z" fill="#F8F8F8" stroke="#B49B72" stroke-linecap="square" stroke-linejoin="bevel"/>
<path d="M56.4095 56.3722C56.4095 56.3722 48.9207 55.182 45.0088 59.1035C45.0088 59.1035 53.838 57.3945 59.5422 58.8898L56.4095 56.3722Z" fill="#F8F8F8" stroke="#B49B72" stroke-linecap="square" stroke-linejoin="bevel"/>
<path d="M86.7464 65.2831C87.9543 63.6123 89.5284 62.3534 91.274 61.5676C86.536 60.4309 86.723 64.894 86.7464 65.2831Z" fill="#B49B72"/>
<path d="M84.6563 66.481C82.6926 66.7938 80.8924 67.6406 79.3962 68.8765C80.7678 63.9252 84.3446 66.2673 84.6563 66.481Z" fill="#B49B72"/>
<path d="M88.411 43.2346V47.4688" stroke="#B49B72" stroke-linecap="square" stroke-linejoin="bevel"/>
<path d="M90.5714 45.3556H86.2543" stroke="#B49B72" stroke-linecap="square" stroke-linejoin="bevel"/>
<path d="M87.1752 25.3366C87.1752 25.3366 90.339 25.5273 90.339 29.6547H90.4481C90.4481 25.5273 93.612 25.3366 93.612 25.3366V25.2298C93.612 25.2298 90.4481 25.039 90.4481 20.9116H90.339C90.339 25.039 87.1752 25.2298 87.1752 25.2298V25.3366Z" fill="#F8F8F8" stroke="#B49B72" stroke-linecap="square" stroke-linejoin="bevel"/>
<path d="M54.6055 33.0573V37.2838" stroke="#B49B72" stroke-linecap="square" stroke-linejoin="bevel"/>
<path d="M56.7669 35.1707H52.4497" stroke="#B49B72" stroke-linecap="square" stroke-linejoin="bevel"/>
<path d="M42.9284 52.1075C42.9284 52.4889 42.6089 52.8017 42.2193 52.8017C41.8296 52.8017 41.5101 52.4889 41.5101 52.1075C41.5101 51.726 41.8296 51.4132 42.2193 51.4132C42.6089 51.4132 42.9284 51.726 42.9284 52.1075Z" fill="#B49B72"/>
</svg>
