<svg width="143" height="91" viewBox="0 0 143 91" fill="none" xmlns="http://www.w3.org/2000/svg">
<path d="M99.8464 25.6383V29.6985" stroke="#B49B72" stroke-linecap="square" stroke-linejoin="bevel"/>
<path d="M101.919 27.6684H97.7722" stroke="#B49B72" stroke-linecap="square" stroke-linejoin="bevel"/>
<path d="M50.9629 33.876C50.9629 33.876 54.0022 34.0592 54.0022 38.0241H54.107C54.107 34.0592 57.1462 33.876 57.1462 33.876V33.7734C57.1462 33.7734 54.107 33.5901 54.107 29.6252H54.0022C54.0022 33.5901 50.9629 33.7734 50.9629 33.7734V33.876Z" fill="#F8F8F8" stroke="#B49B72" stroke-linecap="square" stroke-linejoin="bevel"/>
<path d="M82.2866 16.873V20.9332" stroke="#B49B72" stroke-linecap="square" stroke-linejoin="bevel"/>
<path d="M84.3603 18.9032H80.2131" stroke="#B49B72" stroke-linecap="square" stroke-linejoin="bevel"/>
<path d="M23.8341 69.9265C23.8341 70.293 23.5272 70.5934 23.1529 70.5934C22.7786 70.5934 22.4717 70.293 22.4717 69.9265C22.4717 69.5601 22.7786 69.2596 23.1529 69.2596C23.5272 69.2596 23.8341 69.5601 23.8341 69.9265Z" fill="#B49B72"/>
<path d="M66.0478 71.4729C65.8083 71.9933 65.5388 72.5283 65.2244 73.0706L64.7153 79.3294C64.7153 79.3294 67.006 80.7879 70.5618 79.3294L69.0347 74.0893C69.0347 74.0893 69.2892 72.7701 69.9031 71.1358C69.424 71.2018 68.9374 71.2604 68.4358 71.3044C67.6049 71.385 66.8114 71.4363 66.0478 71.4656V71.4729Z" fill="#B49B72"/>
<path d="M43.4572 47.4343C39.34 48.9074 34.8559 49.9554 31.8316 50.5637C29.4212 51.0547 27.3102 52.6671 25.9777 55.0123C24.7125 57.2476 23.3501 59.9006 23.1779 61.3151C22.8411 64.0341 30.3794 58.4935 31.39 60.3403L32.5727 59.5708C32.5727 59.5708 32.161 56.2728 26.8236 59.0871L27.9015 57.101C29.1966 54.7118 31.3001 53.0555 33.7106 52.5058C35.8815 52.0148 38.6363 51.4651 41.0692 51.2233C45.9874 50.7396 43.4722 47.4343 43.4722 47.4343H43.4572Z" fill="#F8F8F8" stroke="#B49B72" stroke-linecap="square" stroke-linejoin="bevel"/>
<path d="M32.085 58.9113C32.085 58.9113 31.022 59.864 31.6508 62.0333C32.2796 64.2027 32.2123 65.7124 31.7481 66.6505C31.7481 66.6505 32.7513 66.4526 32.9459 65.0602C32.9459 65.0382 32.9459 65.0162 32.9534 64.9942C33.1255 63.5431 33.2303 65.7198 33.2303 65.7198C33.2303 65.7198 34.0987 64.7157 33.7394 62.3192C33.3801 59.9226 32.085 58.9039 32.085 58.9039V58.9113Z" fill="#B49B72" stroke="#B49B72" stroke-miterlimit="10"/>
<path d="M73.1599 70.5421C71.7151 70.8793 70.1505 71.1504 68.4438 71.3117C54.9168 72.6016 50.6049 66.7971 50.6049 66.7971C48.6211 69.4208 44.4515 69.9998 40.2519 71.5975C36.0523 73.1952 34.6599 80.4801 34.6599 80.4801L36.1871 85.7202C32.6238 87.1786 30.3406 85.7202 30.3406 85.7202L30.8496 79.4613C34.6674 72.9094 32.3767 67.8158 32.3767 67.8158C32.3767 67.8158 33.7766 66.7971 35.8128 64.1734C37.8489 61.5497 37.0854 54.8584 41.4047 49.4278C45.7316 43.9971 53.996 44.2316 53.996 44.2316C61.0552 41.6079 68.2865 35.9207 72.9503 31.7799C76.2964 28.8117 81.1997 28.2914 85.0999 30.5194C91.7249 34.3084 101.367 41.0582 106.554 50.5198C106.554 50.5198 104.526 58.1931 103.904 59.8054C103.904 59.8054 99.5252 63.9535 98.9488 66.3574C98.9488 66.3574 95.7672 67.4494 93.4167 65.1921C93.4167 65.1921 92.975 63.8802 93.7985 61.7695C93.7985 61.7695 92.5259 58.86 92.9076 55.7306L91.126 60.2451L91.3805 66.2108C91.3805 66.2108 88.0119 66.4307 83.1161 69.78C83.1161 69.78 81.5291 70.5788 78.9839 69.2669L77.9359 69.0251C76.813 69.4868 75.5628 69.9119 74.2004 70.2783L73.1673 70.5348L73.1599 70.5421Z" fill="#F8F8F8" stroke="#B49B72" stroke-linecap="square" stroke-linejoin="bevel"/>
<path d="M73.1599 70.5421C71.7151 70.8793 70.1505 71.1504 68.4438 71.3117C54.9168 72.6016 50.6049 66.7971 50.6049 66.7971C48.6211 69.4208 44.4515 69.9998 40.2519 71.5975C36.0523 73.1952 34.6599 80.4801 34.6599 80.4801L36.1871 85.7202C32.6238 87.1786 30.3406 85.7202 30.3406 85.7202L30.8496 79.4613C34.6674 72.9094 32.3767 67.8158 32.3767 67.8158C32.3767 67.8158 33.7766 66.7971 35.8128 64.1734C37.8489 61.5497 37.0854 54.8584 41.4047 49.4278C45.7316 43.9971 53.996 44.2316 53.996 44.2316C61.0552 41.6079 68.2865 35.9207 72.9503 31.7799C76.2964 28.8117 81.1997 28.2914 85.0999 30.5194C91.7249 34.3084 101.367 41.0582 106.554 50.5198C106.554 50.5198 104.526 58.1931 103.904 59.8054C103.904 59.8054 99.5252 63.9535 98.9488 66.3574C98.9488 66.3574 95.7672 67.4494 93.4167 65.1921C93.4167 65.1921 92.975 63.8802 93.7985 61.7695C93.7985 61.7695 92.5259 58.86 92.9076 55.7306L91.126 60.2451L91.3805 66.2108C91.3805 66.2108 88.0119 66.4307 83.1161 69.78C83.1161 69.78 81.5291 70.5788 78.9839 69.2669L77.9359 69.0251C76.813 69.4868 75.5628 69.9119 74.2004 70.2783L73.1673 70.5348L73.1599 70.5421Z" fill="#F8F8F8" stroke="#B49B72" stroke-linecap="square" stroke-linejoin="bevel"/>
<path d="M95.8893 51.2234C95.8893 51.2234 94.5418 51.7364 92.8275 52.6818C92.8275 52.6818 91.5924 55.0197 91.5774 59.0872L92.8949 55.738C93.2767 53.0483 95.8818 51.2234 95.8818 51.2234H95.8893Z" fill="#B49B72" stroke="#B49B72" stroke-linecap="square" stroke-linejoin="bevel"/>
<path d="M100.627 56.4414C100.627 56.4414 101.249 58.149 101.458 59.6441C101.458 59.6441 103.015 57.592 100.627 56.4414Z" fill="#B49B72"/>
<path d="M91.3746 65.6171L91.2024 59.864C91.2024 59.864 84.4426 51.2086 84.4426 47.7567" fill="#F8F8F8"/>
<path d="M91.3746 65.6171L91.2024 59.864C91.2024 59.864 84.4426 51.2086 84.4426 47.7567" stroke="#B49B72" stroke-linecap="square" stroke-linejoin="bevel"/>
<path d="M53.8613 57.4822C53.4796 63.0887 50.605 66.7971 50.605 66.7971C50.605 66.7971 51.0242 67.3688 52.0198 68.109C54.9468 61.9381 53.8613 57.4822 53.8613 57.4822Z" fill="#B49B72" stroke="#B49B72" stroke-linecap="square" stroke-linejoin="bevel"/>
<path d="M79.6534 65.3899L84.4669 62.7955L87.0121 63.7409C83.7931 59.5708 73.0209 58.0171 73.0209 58.0171C71.3815 51.5824 72.9086 48.4383 73.6198 47.7567C72.8562 48.3797 69.7721 51.4578 72.2873 58.9185C72.2873 58.9185 78.5306 59.7394 83.1119 62.0773L79.8032 64.0267C79.8032 64.0267 77.6846 62.1799 75.2218 63.4478L73.1557 70.5347C73.5075 70.4541 73.8519 70.3735 74.1887 70.2782L76.0677 64.5104C77.8493 63.7336 79.6459 65.3826 79.6459 65.3826L79.6534 65.3899Z" fill="#B49B72" stroke="#B49B72" stroke-linecap="square" stroke-linejoin="bevel"/>
<path fill-rule="evenodd" clip-rule="evenodd" d="M86.7259 67.736L91.5 66C88.5 69.5 88.7698 72.9973 88.7698 72.9973L90.2969 78.2374C86.7336 79.6958 84.4504 78.2374 84.4504 78.2374L84.9595 71.9786C85.837 70.4726 86.3918 69.0438 86.7259 67.736ZM91.0122 60.1463L91.5 61C91.5 61.7085 91.5558 62.4774 91.608 63.1981V63.1981C91.7033 64.5118 91.787 65.6652 91.5 66L91.0122 60.1463ZM104.341 59.1768C105.413 59.5349 106.607 60.096 107.886 60.9561C112.969 64.3787 117.042 59.8641 117.042 59.8641C113.649 61.8347 110.99 59.1877 108.83 57.0376C108.006 56.218 107.255 55.4706 106.564 55.0787C107.98 55.3432 109.723 55.96 111.66 57.2623C114.362 59.0815 116.778 58.6582 118.449 57.8624C119.922 57.161 120.815 56.1703 120.815 56.1703C119.9 56.7019 119.038 56.8975 118.225 56.8573C116.024 56.7487 114.18 54.9137 112.603 53.3437C111.646 52.3911 110.787 51.5361 110.006 51.2233C107.46 50.2046 103.837 50.2779 103.837 50.2779C103.838 50.3329 103.839 50.385 103.84 50.4341L106.5 51L106.396 51.4171C107.467 51.5391 108.657 51.7608 109.634 52.1517C110.054 52.32 110.605 52.7821 111.381 53.5409C111.539 53.6956 111.705 53.8606 111.877 54.0319C112.483 54.6352 113.168 55.3179 113.892 55.916C114.633 56.5285 115.476 57.1079 116.42 57.4728C115.221 57.6726 113.793 57.4929 112.218 56.4328L112.218 56.4324C109.706 54.7435 107.467 54.1218 105.761 53.9551L104.5 59L104.341 59.1768Z" fill="#B49B72"/>
<path d="M57.1183 83.5581C56.9237 83.4335 52.9412 81.3961 52.9412 81.3961L55.8157 79.5419L76.4693 77.6218L94.0537 77.6071H97.4972C97.4972 77.6071 99.2264 79.7545 99.0318 79.6006C98.8371 79.4393 94.5852 81.4254 94.5852 81.4254L100.731 81.2349C100.731 81.2349 103.149 85.0092 103.216 85.1998C103.284 85.3903 103.216 86.1599 103.216 86.1599H40.7317L42.5657 83.6681H48.1128L57.1183 83.5655V83.5581Z" fill="#B49B72"/>
<path d="M99.8464 25.6383V29.6985" stroke="#B49B72" stroke-linecap="square" stroke-linejoin="bevel"/>
<path d="M101.919 27.6684H97.7722" stroke="#B49B72" stroke-linecap="square" stroke-linejoin="bevel"/>
<path d="M50.9629 33.876C50.9629 33.876 54.0022 34.0592 54.0022 38.0241H54.107C54.107 34.0592 57.1462 33.876 57.1462 33.876V33.7734C57.1462 33.7734 54.107 33.5901 54.107 29.6252H54.0022C54.0022 33.5901 50.9629 33.7734 50.9629 33.7734V33.876Z" fill="#F8F8F8" stroke="#B49B72" stroke-linecap="square" stroke-linejoin="bevel"/>
<path d="M82.2866 16.873V20.9332" stroke="#B49B72" stroke-linecap="square" stroke-linejoin="bevel"/>
<path d="M84.3603 18.9032H80.2131" stroke="#B49B72" stroke-linecap="square" stroke-linejoin="bevel"/>
<path d="M23.8341 69.9265C23.8341 70.293 23.5272 70.5934 23.1529 70.5934C22.7786 70.5934 22.4717 70.293 22.4717 69.9265C22.4717 69.5601 22.7786 69.2596 23.1529 69.2596C23.5272 69.2596 23.8341 69.5601 23.8341 69.9265Z" fill="#B49B72"/>
</svg>
