<svg width="143" height="91" viewBox="0 0 143 91" fill="none" xmlns="http://www.w3.org/2000/svg">
<path d="M43.3528 50.8143V54.7836" stroke="#B49B72" stroke-linecap="square" stroke-linejoin="bevel"/>
<path d="M45.3817 52.799H41.3201" stroke="#B49B72" stroke-linecap="square" stroke-linejoin="bevel"/>
<path d="M95.3367 58.9392C95.3367 58.9392 98.3079 59.1184 98.3079 62.9945H98.4103C98.4103 59.1184 101.382 58.9392 101.382 58.9392V58.8389C101.382 58.8389 98.4103 58.6598 98.4103 54.7837H98.3079C98.3079 58.6598 95.3367 58.8389 95.3367 58.8389V58.9392Z" fill="#F8F8F8" stroke="#B49B72" stroke-linecap="square" stroke-linejoin="bevel"/>
<path d="M97.0942 11V14.9693" stroke="#B49B72" stroke-linecap="square" stroke-linejoin="bevel"/>
<path d="M99.1198 12.9846H95.0654" stroke="#B49B72" stroke-linecap="square" stroke-linejoin="bevel"/>
<path d="M48.1718 61.3251C48.1718 61.6833 47.8717 61.9771 47.5058 61.9771C47.1399 61.9771 46.8398 61.6833 46.8398 61.3251C46.8398 60.9669 47.1399 60.6731 47.5058 60.6731C47.8717 60.6731 48.1718 60.9669 48.1718 61.3251Z" fill="#B49B72"/>
<path d="M72.4079 63.7538C86.7278 63.7538 98.3365 52.3887 98.3365 38.3692C98.3365 24.3496 86.7278 12.9845 72.4079 12.9845C58.0879 12.9845 46.4792 24.3496 46.4792 38.3692C46.4792 52.3887 58.0879 63.7538 72.4079 63.7538Z" fill="#B49B72"/>
<mask id="mask0_560_7506" style="mask-type:luminance" maskUnits="userSpaceOnUse" x="34" y="11" width="77" height="75">
<path d="M72.1648 85.7282C93.2426 85.7282 110.33 68.9997 110.33 48.3641C110.33 27.7285 93.2426 11 72.1648 11C51.0869 11 34 27.7285 34 48.3641C34 68.9997 51.0869 85.7282 72.1648 85.7282Z" fill="white"/>
</mask>
<g mask="url(#mask0_560_7506)">
<path d="M57.4262 45.276C61.217 38.3621 54.8428 39.795 58.7361 30.2014C59.7753 27.6365 61.8098 25.7736 63.032 23.8821C63.2954 23.4809 63.654 23.051 64.0638 22.6211C66.9692 19.5976 71.9529 17.4267 76.6952 20.2138C79.2932 21.7399 80.7641 24.4553 81.4301 27.5361C82.2058 31.14 82.5864 31.9353 88.0824 37.4306C90.7097 40.0529 91.1195 44.1368 89.2021 46.7878C79.5786 60.0712 51.9887 55.2064 57.4335 45.2689L57.4262 45.276Z" fill="#F8F8F8"/>
<path d="M78.8406 43.9004C78.8406 43.9004 79.3456 44.6384 82.1411 45.2187C84.9294 45.8062 84.6074 46.4295 84.6074 46.4295C84.6074 46.4295 86.598 45.8134 87.0297 47.6332C87.0297 47.6332 88.6983 47.0385 89.2399 48.7724C89.7814 50.5134 87.6957 63.6607 86.6126 68.5686C85.5295 73.4764 87.2273 85.42 87.4615 96.074C87.6957 106.728 88.3909 137.558 89.5472 144.816C90.7035 152.074 93.8723 165.902 93.8723 165.902C93.8723 165.902 92.255 166.131 90.7108 165.902C90.7108 165.902 86.8541 166.432 83.4584 166.503C80.0627 166.582 70.7246 165.221 69.1 165.672C67.4826 166.124 59.4106 166.804 57.1127 165.902C57.1127 165.902 56.9809 155.398 58.5251 148.14C60.0692 140.882 57.7567 116.178 58.913 109.981C60.0692 103.783 58.6056 78.4702 58.6056 78.4702L57.9616 69.4785C56.0808 65.7027 57.8299 62.0702 58.4519 57.6925C59.0666 53.3077 57.9616 49.9116 57.9616 49.9116C58.6275 47.7192 60.845 48.4787 60.845 48.4787C61.6134 47.7264 62.6965 47.6404 62.6965 47.6404C64.7822 45.971 65.5579 47.0744 65.5579 47.0744C66.6484 45.971 67.8632 46.4367 67.8632 46.4367C67.8632 46.4367 70.1392 45.7632 71.2223 45.3047" fill="#F8F8F8"/>
<path d="M78.8406 43.9004C78.8406 43.9004 79.3456 44.6384 82.1411 45.2187C84.9294 45.8062 84.6074 46.4295 84.6074 46.4295C84.6074 46.4295 86.598 45.8134 87.0297 47.6332C87.0297 47.6332 88.6983 47.0385 89.2399 48.7724C89.7814 50.5134 87.6957 63.6607 86.6126 68.5686C85.5295 73.4764 87.2273 85.42 87.4615 96.074C87.6957 106.728 88.3909 137.558 89.5472 144.816C90.7035 152.074 93.8723 165.902 93.8723 165.902C93.8723 165.902 92.255 166.131 90.7108 165.902C90.7108 165.902 86.8541 166.432 83.4584 166.503C80.0627 166.582 70.7246 165.221 69.1 165.672C67.4826 166.124 59.4106 166.804 57.1127 165.902C57.1127 165.902 56.9809 155.398 58.5251 148.14C60.0692 140.882 57.7567 116.178 58.913 109.981C60.0692 103.783 58.6056 78.4702 58.6056 78.4702L57.9616 69.4785C56.0808 65.7027 57.8299 62.0702 58.4519 57.6925C59.0666 53.3077 57.9616 49.9116 57.9616 49.9116C58.6275 47.7192 60.845 48.4787 60.845 48.4787C61.6134 47.7264 62.6965 47.6404 62.6965 47.6404C64.7822 45.971 65.5579 47.0744 65.5579 47.0744C66.6484 45.971 67.8632 46.4367 67.8632 46.4367C67.8632 46.4367 70.1392 45.7632 71.2223 45.3047" stroke="#B49B72" stroke-linecap="square" stroke-linejoin="bevel"/>
<path d="M67.8638 46.4294C68.5736 49.2452 69.4592 54.6832 72.5694 54.6832C81.7538 54.6832 82.5003 45.3762 82.5003 45.3762" stroke="#B49B72" stroke-linecap="square" stroke-linejoin="bevel"/>
<path d="M85.3834 53.0211C85.3834 53.0211 85.281 53.0712 85.1126 53.1715C85.1785 52.9136 85.1273 52.6198 84.8199 52.3117C84.8199 52.3117 84.6443 52.3906 84.3662 52.5339C84.476 52.1111 84.4686 51.6383 83.788 51.8532C82.7562 52.1828 80.0191 52.8634 77.7432 57.5062C75.4672 62.1561 75.4452 62.2636 74.0474 63.1735C72.9131 63.9115 63.2603 67.6371 59.667 69.0127L59.3889 54.6618C59.3524 52.9136 58.862 51.2012 57.9619 49.6895C56.1323 51.7314 55.9055 56.9473 54.4345 63.5174C52.9708 70.0946 51.734 79.8387 54.8224 80.1396C57.9107 80.4405 77.3626 65.4805 77.3626 65.4805C77.3626 65.4805 80.063 63.8183 81.6877 59.6628C83.2831 55.5645 84.7321 55.5072 84.6955 54.7119L85.1785 54.2749C85.1785 54.2749 85.8518 53.673 85.3907 53.0139L85.3834 53.0211Z" fill="#F8F8F8" stroke="#B49B72" stroke-linecap="square" stroke-linejoin="bevel"/>
<path d="M84.3655 52.541C84.3582 52.6413 81.8114 53.5727 80.1648 55.7651Z" fill="#F8F8F8"/>
<path d="M84.3655 52.541C84.3582 52.6413 81.8114 53.5727 80.1648 55.7651" stroke="#B49B72" stroke-linecap="square" stroke-linejoin="bevel"/>
<path d="M85.1126 53.1715C85.1126 53.1715 82.3536 54.5113 80.9998 56.4028Z" fill="#F8F8F8"/>
<path d="M85.1126 53.1715C85.1126 53.1715 82.3536 54.5113 80.9998 56.4028" stroke="#B49B72" stroke-linecap="square" stroke-linejoin="bevel"/>
<path d="M84.688 54.7192C84.688 54.7192 83.8537 54.2535 81.9656 56.8399Z" fill="#F8F8F8"/>
<path d="M84.688 54.7192C84.688 54.7192 83.8537 54.2535 81.9656 56.8399" stroke="#B49B72" stroke-linecap="square" stroke-linejoin="bevel"/>
<path d="M82.7432 50.4918C83.9653 48.1776 84.6093 46.4294 84.6093 46.4294" stroke="#B49B72" stroke-linecap="square" stroke-linejoin="bevel"/>
<path d="M65.5596 47.0671C65.5596 47.0671 66.7598 57.0978 73.6536 57.8071C74.8099 57.9289 75.893 57.6781 76.8882 57.1837" stroke="#B49B72" stroke-linecap="square" stroke-linejoin="bevel"/>
<path d="M73.7319 50.4919C73.7319 50.4919 74.4272 48.7508 76.5861 48.3568C78.7449 47.9555 80.1647 46.9238 80.1647 46.9238" fill="#F8F8F8"/>
<path d="M73.7319 50.4919C73.7319 50.4919 74.4272 48.7508 76.5861 48.3568C78.7449 47.9555 80.1647 46.9238 80.1647 46.9238" stroke="#B49B72" stroke-linecap="square" stroke-linejoin="bevel"/>
<path d="M85.7563 50.4918C86.6053 48.7006 87.037 47.6331 87.037 47.6331" stroke="#B49B72" stroke-linecap="square" stroke-linejoin="bevel"/>
<path d="M62.689 47.6331C62.689 47.6331 65.0015 61.6115 73.7249 61.332" stroke="#B49B72" stroke-linecap="square" stroke-linejoin="bevel"/>
<path d="M60.8386 48.4714C60.8386 48.4714 63.905 63.6678 71.8819 64.1765" stroke="#B49B72" stroke-linecap="square" stroke-linejoin="bevel"/>
<path d="M65.1282 74.4078C66.8626 80.0178 68.8166 85.0045 70.4851 86.4947" stroke="#B49B72" stroke-linecap="square" stroke-linejoin="bevel"/>
<path d="M57.9604 49.6965C57.9604 49.6965 59.6071 50.0763 60.8438 57.1765C61.2683 59.6269 62.1319 63.503 63.215 67.6585" fill="#F8F8F8"/>
<path d="M57.9604 49.6965C57.9604 49.6965 59.6071 50.0763 60.8438 57.1765C61.2683 59.6269 62.1319 63.503 63.215 67.6585" stroke="#B49B72" stroke-linecap="square" stroke-linejoin="bevel"/>
<path d="M62.689 57.8357C62.689 57.8357 63.6843 62.1274 65.1259 66.9277Z" fill="#F8F8F8"/>
<path d="M62.689 57.8357C62.689 57.8357 63.6843 62.1274 65.1259 66.9277" stroke="#B49B72" stroke-linecap="square" stroke-linejoin="bevel"/>
<path d="M68.5718 71.9861C69.911 75.4323 71.4845 78.3484 72.9554 78.4057" stroke="#B49B72" stroke-linecap="square" stroke-linejoin="bevel"/>
<path d="M65.1282 60.802C65.1282 60.802 65.7136 63.2452 66.643 66.3117Z" fill="#F8F8F8"/>
<path d="M65.1282 60.802C65.1282 60.802 65.7136 63.2452 66.643 66.3117" stroke="#B49B72" stroke-linecap="square" stroke-linejoin="bevel"/>
<path d="M71.2222 79.2439C71.2222 79.2439 73.4176 79.8458 75.196 74.1068C76.9743 68.3679 78.3355 64.7139 78.3355 64.7139" stroke="#B49B72" stroke-linecap="square" stroke-linejoin="bevel"/>
<path d="M71.8806 72.5952C71.8806 72.5952 73.9736 71.5348 74.7787 69.5" stroke="#B49B72" stroke-linecap="square" stroke-linejoin="bevel"/>
<path d="M84.3655 56.8326C80.6478 69.2921 77.8669 78.6564 75.1957 85.3125C72.5245 91.9613 71.2146 95.3861 66.3625 95.3861" stroke="#B49B72" stroke-linecap="square" stroke-linejoin="bevel"/>
<path d="M63.9119 75.2031C63.9119 75.2031 66.1952 93.0863 70.491 94.0392" stroke="#B49B72" stroke-linecap="square" stroke-linejoin="bevel"/>
<path d="M61.6738 76.7148C61.747 77.5603 61.8348 78.4129 61.9153 79.2583C62.6325 86.3156 64.6377 98.9112 67.8065 100.122" stroke="#B49B72" stroke-linecap="square" stroke-linejoin="bevel"/>
<path d="M60.8386 64.9216C60.8386 64.9216 60.9045 66.3188 61.0435 68.4897Z" fill="#F8F8F8"/>
<path d="M60.8386 64.9216C60.8386 64.9216 60.9045 66.3188 61.0435 68.4897" stroke="#B49B72" stroke-linecap="square" stroke-linejoin="bevel"/>
<path d="M59.6509 78.413C59.6509 78.413 60.9096 106.878 68.2059 110.103" stroke="#B49B72" stroke-linecap="square" stroke-linejoin="bevel"/>
<path d="M72.958 85.1119C72.958 85.1119 74.5022 83.2849 75.3657 79.2583Z" fill="#F8F8F8"/>
<path d="M72.958 85.1119C72.958 85.1119 74.5022 83.2849 75.3657 79.2583" stroke="#B49B72" stroke-linecap="square" stroke-linejoin="bevel"/>
<path d="M67.1965 107.681C67.1965 107.681 68.77 110.203 71.8802 107.681C74.9905 105.159 78.7301 101.405 83.326 81.3433C84.3359 76.937 85.6825 72.8961 86.4582 69.285" stroke="#B49B72" stroke-linecap="square" stroke-linejoin="bevel"/>
<path d="M69.2244 98.8108C69.2244 98.8108 74.6838 99.9214 79.104 85.1047C83.5316 70.2952 86.4589 57.3987 86.4589 57.3987" stroke="#B49B72" stroke-linecap="square" stroke-linejoin="bevel"/>
<path d="M82.8355 83.4568C82.8355 83.4568 83.3259 89.0023 82.3013 106.706C81.4451 121.43 81.8183 133.502 81.7231 142.745" stroke="#B49B72" stroke-linecap="square" stroke-linejoin="bevel"/>
<path d="M84.0581 78.413C84.0581 78.413 86.0999 89.1529 85.1778 108.541C84.5997 120.757 85.2363 134.606 85.7999 144.465" stroke="#B49B72" stroke-linecap="square" stroke-linejoin="bevel"/>
<path d="M74.4943 35.4532C69.5033 45.8564 63.5682 42.9905 63.5682 42.9905L61.9728 35.6753L59.5431 36.4993C59.7919 31.8995 61.1385 27.6795 61.1385 27.6795L60.6189 27.4932C60.6189 27.4932 57.2525 26.0101 57.6916 23.6314C58.1966 20.8873 60.6335 20.178 64.5415 22.614C65.1196 22.9722 65.9173 23.2947 66.8614 23.3448" fill="#F8F8F8"/>
<path d="M74.4943 35.4532C69.5033 45.8564 63.5682 42.9905 63.5682 42.9905L61.9728 35.6753L59.5431 36.4993C59.7919 31.8995 61.1385 27.6795 61.1385 27.6795L60.6189 27.4932C60.6189 27.4932 57.2525 26.0101 57.6916 23.6314C58.1966 20.8873 60.6335 20.178 64.5415 22.614C65.1196 22.9722 65.9173 23.2947 66.8614 23.3448" stroke="#B49B72" stroke-linecap="square" stroke-linejoin="bevel"/>
<path d="M62.7852 39.4151C62.7852 39.4151 65.3612 38.7703 66.4297 37.9607Z" fill="#F8F8F8"/>
<path d="M62.7852 39.4151C62.7852 39.4151 65.3612 38.7703 66.4297 37.9607" stroke="#B49B72" stroke-linecap="square" stroke-linejoin="bevel"/>
<path d="M62.2507 31.5554C62.4117 31.7059 63.8095 32.9526 65.3756 31.1614" stroke="#B49B72" stroke-linecap="square" stroke-linejoin="bevel"/>
<path d="M78.5488 44.3732L78.6563 34.0201" stroke="#B49B72" stroke-linecap="square" stroke-linejoin="bevel"/>
<path d="M74.4925 35.4531C73.2411 38.1542 71.9311 39.8021 70.6577 41.0273C70.7016 41.1849 71.5066 45.3763 70.9943 50.277" fill="#F8F8F8"/>
<path d="M74.4925 35.4531C73.2411 38.1542 71.9311 39.8021 70.6577 41.0273C70.7016 41.1849 71.5066 45.3763 70.9943 50.277" stroke="#B49B72" stroke-linecap="square" stroke-linejoin="bevel"/>
<path d="M65.3777 30.6599L67.5586 30.7602C67.5586 30.7602 66.7316 31.4695 64.8362 31.8779L65.3851 30.6599H65.3777Z" fill="#B49B72"/>
<path d="M70.6086 26.1319C70.6086 26.1319 68.9107 24.398 66.1883 25.8954C64.3661 26.8985 62.2511 26.3898 61.8047 25.5014" fill="#F8F8F8"/>
<path d="M70.6086 26.1319C70.6086 26.1319 68.9107 24.398 66.1883 25.8954C64.3661 26.8985 62.2511 26.3898 61.8047 25.5014" stroke="#B49B72" stroke-linecap="square" stroke-linejoin="bevel"/>
<path d="M80.341 34.5147C80.341 34.5147 78.5041 32.8596 75.9207 34.5792C74.1936 35.7327 72.0201 35.2455 71.5005 34.4001" stroke="#B49B72" stroke-linecap="square" stroke-linejoin="bevel"/>
<path d="M72.6271 26.791C72.6271 26.791 71.5586 25.3007 69.3924 27.0059C67.9434 28.1523 66.4432 27.8728 66.2017 27.0704" fill="#F8F8F8"/>
<path d="M72.6271 26.791C72.6271 26.791 71.5586 25.3007 69.3924 27.0059C67.9434 28.1523 66.4432 27.8728 66.2017 27.0704" stroke="#B49B72" stroke-linecap="square" stroke-linejoin="bevel"/>
<path d="M74.2264 25.3364C74.2264 25.3364 73.7141 26.275 73.736 26.8912C73.736 26.97 73.7799 27.0631 73.8385 27.1563C74.058 27.5002 74.563 27.4715 74.7533 27.1133C74.8045 27.013 74.8411 26.9127 74.8338 26.8267C74.7972 26.2105 74.2264 25.3364 74.2264 25.3364Z" fill="#B49B72"/>
<path d="M72.8015 28.9546C72.8015 28.9546 73.065 27.9157 73.5114 27.4787C73.5699 27.4213 73.6578 27.3784 73.7675 27.3497C74.1627 27.2422 74.5213 27.5933 74.4189 27.9874C74.3896 28.0948 74.3457 28.1951 74.2798 28.2525C73.8261 28.6823 72.8088 28.9546 72.8088 28.9546H72.8015Z" fill="#B49B72"/>
<path d="M75.5027 25.752C75.5027 25.752 75.1003 26.7407 75.1881 27.3568C75.2027 27.4357 75.2539 27.5216 75.3198 27.6076C75.5759 27.9229 76.0809 27.8441 76.2273 27.4643C76.2712 27.3569 76.2931 27.2565 76.2785 27.1706C76.1687 26.5616 75.5027 25.7591 75.5027 25.7591V25.752Z" fill="#B49B72"/>
<path d="M74.5344 29.5206C74.5344 29.5206 74.6808 28.4602 75.0687 27.973C75.1199 27.9085 75.2077 27.8584 75.3102 27.8154C75.6907 27.6649 76.0859 27.9802 76.0273 28.3742C76.0127 28.4889 75.9761 28.5892 75.9176 28.6537C75.5151 29.1265 74.5344 29.5134 74.5344 29.5134V29.5206Z" fill="#B49B72"/>
<path d="M76.6633 25.9454C76.6633 25.9454 76.4145 26.9843 76.5974 27.5718C76.6194 27.6506 76.6853 27.7294 76.7658 27.8011C77.0658 28.0733 77.5561 27.9229 77.644 27.5288C77.6659 27.4142 77.6732 27.3139 77.644 27.2279C77.4464 26.6475 76.6633 25.9382 76.6633 25.9382V25.9454Z" fill="#B49B72"/>
<path d="M76.285 29.8072C76.285 29.8072 76.2704 28.7396 76.5777 28.2023C76.6143 28.1306 76.6948 28.0661 76.79 28.016C77.1413 27.8082 77.5877 28.059 77.5877 28.4674C77.5877 28.582 77.573 28.6895 77.5218 28.7611C77.1998 29.2913 76.285 29.8072 76.285 29.8072Z" fill="#B49B72"/>
<path d="M77.9979 25.9025C77.9979 25.9025 77.8954 26.9628 78.1589 27.5289C78.1955 27.6005 78.2687 27.6722 78.3565 27.7295C78.6931 27.9587 79.1542 27.7438 79.1834 27.3426C79.1908 27.2279 79.1834 27.1205 79.1468 27.0488C78.8687 26.4971 77.9979 25.9025 77.9979 25.9025Z" fill="#B49B72"/>
<path d="M78.1518 29.7786C78.1518 29.7786 77.9909 28.7254 78.2177 28.1522C78.247 28.0805 78.3202 28.0017 78.4007 27.9372C78.7227 27.6865 79.1984 27.8799 79.2496 28.274C79.2642 28.3886 79.2642 28.4961 79.2276 28.5749C78.9788 29.1409 78.1445 29.7786 78.1445 29.7786H78.1518Z" fill="#B49B72"/>
<path d="M79.0208 25.666C79.0208 25.666 79.1525 26.7264 79.533 27.2208C79.5843 27.2852 79.6721 27.3354 79.7672 27.3784C80.1478 27.536 80.5503 27.2279 80.4917 26.8267C80.4771 26.7121 80.4478 26.6118 80.3893 26.5473C79.9941 26.0672 79.0208 25.666 79.0208 25.666Z" fill="#B49B72"/>
<path d="M80.0158 29.4275C80.0158 29.4275 79.6279 28.4316 79.7304 27.8226C79.745 27.7438 79.7962 27.6578 79.8621 27.5718C80.1256 27.2565 80.6232 27.3497 80.7622 27.7294C80.7988 27.8369 80.8208 27.9444 80.8062 28.0232C80.6891 28.625 80.0085 29.4275 80.0085 29.4275H80.0158Z" fill="#B49B72"/>
<path d="M71.5786 26.2464C71.5786 26.2464 72.2007 27.1205 72.7715 27.3856C72.8447 27.4214 72.9471 27.4286 73.0569 27.4142C73.4667 27.3784 73.679 26.9199 73.4375 26.5974C73.3716 26.5043 73.2911 26.4255 73.2106 26.3968C72.6324 26.1532 71.5786 26.2464 71.5786 26.2464Z" fill="#B49B72"/>
<path d="M73.4978 27.1062C73.4978 27.1062 77.4497 29.1768 81.1966 26.8625" stroke="#B49B72" stroke-linecap="square" stroke-linejoin="bevel"/>
<path d="M61.1819 53.0211C61.1819 53.0211 61.2844 53.0712 61.4527 53.1715C61.3868 52.9136 61.438 52.6198 61.7454 52.3117C61.7454 52.3117 61.921 52.3906 62.1991 52.5339C62.0894 52.1111 62.0967 51.6383 62.7773 51.8532C63.8092 52.1828 66.5462 52.8634 68.8222 57.5062C71.0981 62.1561 71.1201 62.2636 72.5179 63.1735C73.6522 63.9115 83.305 67.6371 86.8983 69.0127L87.1764 54.6618C87.213 52.9136 87.7033 51.2012 88.6034 49.6895C90.433 51.7314 90.6599 56.9473 92.1308 63.5174C93.5945 70.0946 94.8313 79.8387 91.743 80.1396C88.6547 80.4405 69.2027 65.4805 69.2027 65.4805C69.2027 65.4805 66.5023 63.8183 64.8776 59.6628C63.2822 55.5645 61.8332 55.5072 61.8698 54.7119L61.3868 54.2749C61.3868 54.2749 60.7135 53.673 61.1746 53.0139L61.1819 53.0211Z" fill="#F8F8F8" stroke="#B49B72" stroke-linecap="square" stroke-linejoin="bevel"/>
<path d="M62.2041 52.541C62.2114 52.6413 64.7582 53.5727 66.4048 55.7651Z" fill="#F8F8F8"/>
<path d="M62.2041 52.541C62.2114 52.6413 64.7582 53.5727 66.4048 55.7651" stroke="#B49B72" stroke-linecap="square" stroke-linejoin="bevel"/>
<path d="M61.4526 53.1715C61.4526 53.1715 64.2116 54.5113 65.5655 56.4028Z" fill="#F8F8F8"/>
<path d="M61.4526 53.1715C61.4526 53.1715 64.2116 54.5113 65.5655 56.4028" stroke="#B49B72" stroke-linecap="square" stroke-linejoin="bevel"/>
<path d="M61.8765 54.7192C61.8765 54.7192 62.7107 54.2535 64.5989 56.8399Z" fill="#F8F8F8"/>
<path d="M61.8765 54.7192C61.8765 54.7192 62.7107 54.2535 64.5989 56.8399" stroke="#B49B72" stroke-linecap="square" stroke-linejoin="bevel"/>
<path d="M43.3528 50.8143V54.7836" stroke="#B49B72" stroke-linecap="square" stroke-linejoin="bevel"/>
<path d="M45.3817 52.799H41.3201" stroke="#B49B72" stroke-linecap="square" stroke-linejoin="bevel"/>
<path d="M95.3367 58.9392C95.3367 58.9392 98.3079 59.1184 98.3079 62.9945H98.4103C98.4103 59.1184 101.382 58.9392 101.382 58.9392V58.8389C101.382 58.8389 98.4103 58.6598 98.4103 54.7837H98.3079C98.3079 58.6598 95.3367 58.8389 95.3367 58.8389V58.9392Z" fill="#F8F8F8" stroke="#B49B72" stroke-linecap="square" stroke-linejoin="bevel"/>
<path d="M97.0942 11V14.9693" stroke="#B49B72" stroke-linecap="square" stroke-linejoin="bevel"/>
<path d="M99.1198 12.9846H95.0654" stroke="#B49B72" stroke-linecap="square" stroke-linejoin="bevel"/>
<path d="M48.1718 61.3251C48.1718 61.6833 47.8717 61.9771 47.5058 61.9771C47.1399 61.9771 46.8398 61.6833 46.8398 61.3251C46.8398 60.9669 47.1399 60.6731 47.5058 60.6731C47.8717 60.6731 48.1718 60.9669 48.1718 61.3251Z" fill="#B49B72"/>
</g>
</svg>
